<svg xmlns="http://www.w3.org/2000/svg" xmlns:xlink="http://www.w3.org/1999/xlink" width="400" zoomAndPan="magnify" viewBox="0 0 300 299.999988" height="400" preserveAspectRatio="xMidYMid meet" version="1.0"><defs><clipPath id="13cdd09674"><path d="M 13 39 L 288 39 L 288 260.828125 L 13 260.828125 Z M 13 39 " clip-rule="nonzero"/></clipPath><clipPath id="1628e705ac"><path d="M 12 39 L 288 39 L 288 260.828125 L 12 260.828125 Z M 12 39 " clip-rule="nonzero"/></clipPath></defs><g clip-path="url(#13cdd09674)"><path fill="#ffffff" d="M 86.378906 136.945312 C 86.679688 136.367188 86.503906 135.769531 85.929688 135.71875 C 85.953125 135.34375 85.378906 134.570312 84.75 134.820312 C 84.625 134.496094 84.652344 133.695312 83.222656 134.21875 C 82.324219 135.019531 81.320312 136.945312 81.320312 136.945312 C 81.320312 136.945312 81.121094 136.492188 81.019531 135.542969 C 80.921875 134.59375 80.597656 132.695312 79.394531 132.96875 C 78.96875 133.296875 79.46875 135.519531 78.945312 137.21875 C 78.417969 138.917969 77.691406 140.84375 78.042969 142.042969 C 77.265625 143.714844 71.457031 150.339844 69.90625 151.238281 C 67.902344 151.214844 65.449219 150.238281 65.449219 150.238281 C 65.449219 150.238281 57.539062 147.140625 51.203125 146.390625 L 51.203125 175.878906 L 36.160156 175.878906 L 36.160156 173.179688 L 43.167969 173.179688 L 43.46875 151.1875 L 43.417969 149.140625 C 43.417969 149.140625 47.375 149.1875 47.523438 145.890625 C 47.675781 142.589844 47.523438 141.191406 47.523438 141.191406 C 47.523438 141.191406 51.28125 140.34375 52.082031 139.59375 C 52.382812 138.84375 52.429688 136.894531 52.429688 135.84375 C 53.28125 135.496094 53.382812 134.394531 53.382812 134.394531 C 53.382812 134.394531 52.382812 133.546875 51.878906 132.894531 C 51.679688 130.894531 51.179688 129.046875 51.179688 129.046875 L 51.605469 128.585938 C 51.605469 128.585938 51.230469 126.5625 48.261719 124.347656 C 45.296875 122.136719 39.398438 124.238281 37.824219 125.285156 C 36.246094 126.335938 34.480469 127.761719 34.292969 135.03125 C 34.105469 142.304688 34.292969 146.800781 34.292969 146.800781 C 34.292969 146.800781 30.5 147.925781 27.269531 149.875 C 24.042969 151.824219 16.792969 158.421875 14.238281 163.445312 C 11.6875 168.46875 14.503906 171.167969 14.914062 171.992188 C 15.328125 172.816406 21.414062 180.011719 24.605469 181.136719 C 27.796875 182.261719 26.96875 182.789062 29.296875 182.335938 C 29.824219 182.898438 31.195312 184.117188 31.195312 184.117188 C 31.195312 184.117188 27.394531 212.003906 27.394531 234.128906 C 29.667969 234.128906 31.648438 234.128906 33.375 234.128906 L 33.375 252.722656 C 33.375 252.722656 22.382812 256.441406 22.199219 257.742188 C 22.125 258.253906 22.109375 258.761719 22.117188 259.195312 C 22.128906 259.832031 22.648438 260.347656 23.289062 260.347656 L 39.335938 260.347656 C 40.054688 260.347656 40.640625 259.765625 40.640625 259.046875 L 40.640625 252.351562 L 41.058594 234.128906 C 43.203125 234.128906 43.972656 234.128906 43.972656 234.128906 L 46.609375 234.128906 L 47.027344 252.351562 L 47.027344 259.046875 C 47.027344 259.765625 47.609375 260.347656 48.328125 260.347656 L 64.378906 260.347656 C 65.019531 260.347656 65.539062 259.832031 65.550781 259.195312 C 65.558594 258.761719 65.542969 258.253906 65.46875 257.742188 C 65.285156 256.441406 54.292969 252.722656 54.292969 252.722656 L 54.292969 234.128906 L 58.847656 234.128906 C 58.847656 213.921875 55.351562 186.277344 54.746094 181.625 L 57.765625 181.476562 L 57.839844 158.835938 L 63.496094 159.632812 C 63.496094 159.632812 68.503906 160.335938 70.304688 160.132812 C 72.109375 159.933594 73.761719 158.933594 77.566406 154.585938 C 81.371094 150.238281 85.429688 141.742188 85.429688 141.742188 C 85.429688 141.742188 86.628906 139.765625 86.804688 138.769531 C 86.980469 137.769531 86.804688 137.292969 86.378906 136.945312 Z M 28.210938 176.488281 C 26.96875 176.414062 20.925781 169.59375 20.925781 167.90625 C 20.925781 166.105469 28.023438 160.183594 28.023438 160.183594 C 28.359375 160.296875 28.433594 174.914062 28.210938 176.488281 Z M 263.304688 252.636719 L 263.304688 251.226562 L 255.960938 251.226562 L 255.960938 259.027344 C 255.960938 259.753906 256.550781 260.34375 257.277344 260.34375 L 273.503906 260.34375 C 274.152344 260.34375 274.675781 259.824219 274.6875 259.179688 C 274.695312 258.742188 274.679688 258.226562 274.605469 257.710938 C 274.417969 256.394531 263.304688 252.636719 263.304688 252.636719 Z M 238.421875 252.636719 C 238.421875 252.636719 227.308594 256.394531 227.121094 257.710938 C 227.046875 258.226562 227.03125 258.742188 227.039062 259.179688 C 227.050781 259.824219 227.574219 260.34375 228.222656 260.34375 L 244.449219 260.34375 C 245.175781 260.34375 245.765625 259.753906 245.765625 259.027344 L 245.765625 251.226562 L 238.421875 251.226562 Z M 150.140625 52.230469 C 150.152344 52.230469 150.167969 52.234375 150.179688 52.234375 C 150.191406 52.234375 150.207031 52.230469 150.21875 52.230469 Z M 193.03125 149.488281 C 190.726562 141.390625 175.304688 129.296875 175.304688 129.296875 L 175.1875 130.242188 C 175.71875 118.578125 175.359375 106.527344 173.164062 95.78125 C 168.039062 70.671875 155.949219 52.3125 150.179688 52.234375 C 144.40625 52.3125 132.320312 70.671875 127.195312 95.78125 C 124.996094 106.546875 124.640625 118.570312 125.175781 130.214844 L 125.054688 129.296875 C 125.054688 129.296875 109.632812 141.390625 107.328125 149.488281 C 105.023438 157.585938 102.960938 188.074219 102.808594 194.21875 C 102.753906 196.421875 102.5 197.875 102.949219 198.832031 C 103.671875 200.375 105.300781 200.890625 106.203125 198.941406 C 106.753906 197.753906 107.027344 196.84375 108.304688 192.269531 C 110.003906 186.191406 112.238281 173.921875 116.441406 165.78125 C 117.902344 162.949219 125.320312 160.1875 128.09375 159.46875 C 129.003906 165.824219 129.933594 171.375 130.609375 175.648438 L 133.519531 175.648438 L 133.257812 175.664062 L 133.257812 180.242188 L 140.0625 180.242188 L 137.449219 192.09375 L 135.855469 192.09375 C 135.40625 192.09375 135.042969 192.457031 135.042969 192.902344 L 135.042969 194.761719 C 135.042969 195.207031 135.40625 195.570312 135.855469 195.570312 L 137.875 195.570312 L 134.144531 209.214844 C 134.144531 209.214844 131.894531 209.0625 129.828125 210 C 129.867188 207.488281 127.5 202.765625 122.429688 201.867188 C 117.359375 200.96875 111.578125 204.265625 111.3125 211.238281 C 108.121094 211.460938 106.695312 213.488281 106.058594 215.921875 C 106.28125 215.9375 106.597656 215.949219 106.972656 215.960938 L 103.351562 215.960938 L 103.351562 259.542969 L 195.433594 259.542969 L 195.433594 215.960938 L 193.878906 215.960938 C 193.878906 215.960938 193.582031 212.363281 188.574219 211.3125 C 188.574219 206.066406 185.320312 202.816406 180.5625 201.867188 C 175.804688 200.917969 170.699219 204.617188 170.195312 209.761719 C 168.796875 209.015625 165.691406 209.363281 165.691406 209.363281 L 162.019531 195.570312 L 164.503906 195.570312 C 164.949219 195.570312 165.3125 195.207031 165.3125 194.761719 L 165.3125 192.902344 C 165.3125 192.457031 164.949219 192.09375 164.503906 192.09375 L 163.058594 192.09375 L 160.160156 180.242188 L 167.101562 180.242188 L 167.101562 175.664062 L 166.898438 175.644531 L 169.75 175.644531 C 170.425781 171.472656 171.351562 165.980469 172.257812 159.667969 C 175.105469 160.15625 182.382812 162.804688 183.917969 165.78125 C 188.121094 173.921875 190.355469 186.191406 192.054688 192.269531 C 193.332031 196.84375 193.605469 197.753906 194.15625 198.941406 C 195.058594 200.890625 196.6875 200.375 197.410156 198.832031 C 197.859375 197.875 197.605469 196.421875 197.550781 194.21875 C 197.398438 188.074219 195.335938 157.585938 193.03125 149.488281 Z M 241.921875 135.519531 C 241.921875 135.519531 237.492188 127.796875 234.714844 116.027344 C 231.933594 104.257812 230.980469 97.929688 230.980469 97.929688 C 230.980469 97.929688 231.039062 94.53125 231.242188 93.847656 C 231.445312 93.167969 231.382812 87.480469 228.972656 86.363281 C 226.625 86.347656 225.582031 86.59375 225.582031 86.59375 L 224.867188 83.953125 L 226.945312 74.464844 L 220.101562 71.003906 L 214.953125 65.300781 L 209.207031 85.074219 L 215.824219 83.335938 L 224.5625 84.542969 L 223.707031 86.5 L 221.835938 85.5 C 221.835938 85.5 220.472656 85.097656 220.703125 86.757812 L 220.449219 87.34375 C 220.449219 87.34375 219.761719 87.09375 219.0625 87.417969 C 218.359375 87.742188 219.082031 88.710938 219.082031 88.710938 C 219.082031 88.710938 218.09375 89 218.152344 90.144531 C 218.191406 90.863281 219.460938 91.273438 219.460938 91.273438 C 219.460938 91.273438 217.960938 91.019531 218.078125 92.304688 C 218.195312 93.589844 220.75 96.609375 220.75 96.609375 L 221.644531 99 C 221.644531 99 223.296875 109.953125 224.648438 116.175781 C 226 122.398438 229.605469 136.117188 231.707031 140.917969 C 235.390625 139.042969 241.921875 135.519531 241.921875 135.519531 Z M 286.6875 83.976562 C 287.175781 82.816406 287.324219 79.929688 285.335938 80.941406 C 285.371094 80.191406 284.769531 79.480469 283.945312 79.816406 C 283.117188 80.15625 282.707031 82.179688 282.707031 82.179688 C 282.707031 82.179688 281.804688 80.417969 280.828125 81.917969 C 280.300781 83.527344 276.585938 90.761719 276.585938 90.761719 C 276.585938 90.761719 276.734375 88.664062 275.984375 87.050781 C 275.234375 85.441406 274.519531 85.550781 274.292969 85.964844 C 274.070312 86.378906 273.769531 87.613281 274.03125 88.777344 C 274.292969 89.9375 273.957031 92.113281 273.355469 93.535156 C 272.753906 94.960938 273.878906 98.335938 273.878906 98.335938 C 273.878906 98.335938 274.292969 99.234375 273.28125 103.246094 C 272.265625 107.257812 267.195312 124.796875 264.117188 130.722656 C 262.015625 134.730469 261.824219 135.371094 261.824219 135.371094 L 272.191406 140.992188 C 272.191406 140.992188 274.894531 134.84375 277.449219 124.796875 C 280 114.753906 281.054688 107.78125 281.054688 107.78125 L 282.707031 98.109375 L 286.6875 89.414062 C 286.6875 89.414062 288.414062 84.992188 286.6875 83.976562 Z M 102.570312 89.242188 C 96.707031 83.390625 87.199219 83.390625 81.335938 89.242188 C 75.472656 95.097656 75.472656 104.585938 81.335938 110.4375 C 87.199219 116.292969 96.707031 116.292969 102.570312 110.4375 C 108.433594 104.585938 108.433594 95.097656 102.570312 89.242188 Z M 184.945312 95.28125 L 185.667969 98.558594 L 186.394531 95.28125 C 186.558594 94.539062 187 93.957031 187.566406 93.742188 L 190.054688 92.785156 L 187.566406 91.832031 C 187 91.617188 186.558594 91.035156 186.394531 90.292969 L 185.667969 87.015625 L 184.945312 90.292969 C 184.777344 91.035156 184.335938 91.617188 183.773438 91.832031 L 181.285156 92.785156 L 183.773438 93.742188 C 184.335938 93.957031 184.777344 94.539062 184.945312 95.28125 Z M 127.355469 49.964844 L 128.289062 54.179688 L 129.222656 49.964844 C 129.433594 49.007812 130 48.261719 130.726562 47.984375 L 133.925781 46.757812 L 130.726562 45.527344 C 130 45.25 129.433594 44.503906 129.222656 43.546875 L 128.289062 39.335938 L 127.355469 43.546875 C 127.144531 44.503906 126.578125 45.25 125.851562 45.527344 L 122.648438 46.757812 L 125.851562 47.984375 C 126.578125 48.261719 127.144531 49.007812 127.355469 49.964844 Z M 257.46875 131.796875 C 259.324219 130.347656 261.023438 127.699219 260.773438 125.097656 C 260.523438 122.5 258.871094 118.703125 252.964844 117.851562 C 248.15625 117.152344 246.253906 119.550781 245.902344 121.199219 C 245.902344 121.199219 244.578125 123.523438 244.601562 125.574219 C 243.074219 126.824219 242.898438 126.871094 243.101562 127.324219 C 243.300781 127.773438 243.699219 128.398438 243.699219 128.398438 C 243.699219 128.398438 243.375 131.546875 244.527344 132.394531 C 245.679688 133.246094 248.882812 133.96875 248.882812 133.96875 L 248.882812 138.667969 C 248.882812 138.667969 248.582031 140.21875 251.785156 140.21875 C 254.992188 140.21875 254.667969 138.441406 254.667969 138.441406 L 254.890625 134.820312 C 254.890625 134.820312 255.617188 133.246094 257.46875 131.796875 Z M 257.46875 131.796875 " fill-opacity="1" fill-rule="nonzero"/></g><path fill="#fe696e" d="M 233.109375 77.375 L 233.054688 78.78125 L 233.246094 78.820312 C 234.285156 79.039062 234.890625 80.132812 234.519531 81.128906 L 233.796875 83.074219 C 233.496094 83.894531 232.628906 84.363281 231.773438 84.167969 L 231.457031 84.09375 L 231.03125 85.105469 L 227.71875 85.285156 L 227.210938 86.554688 L 225.214844 87.488281 L 223.933594 86.21875 L 224.523438 84.6875 L 220.917969 84.066406 L 224.195312 73.136719 Z M 264.769531 178.894531 C 265.234375 185.195312 265.4375 189.375 265.265625 200.84375 C 264.941406 222.535156 264.703125 251.226562 264.703125 251.226562 L 254.953125 251.226562 L 252.074219 190.808594 L 247.398438 251.226562 L 237.09375 251.226562 C 237.09375 251.226562 237.09375 237.839844 237.546875 216.820312 C 237.984375 196.609375 239.390625 178.894531 239.390625 178.894531 M 223.023438 92.484375 C 223.023438 92.484375 223.648438 92.804688 223.1875 93.753906 C 222.726562 94.703125 221.59375 93.835938 221.59375 93.835938 L 221.394531 95.507812 L 224.382812 96.398438 L 226.226562 89.714844 C 226.226562 89.714844 225.597656 89.960938 224.722656 89.75 C 224.699219 90.515625 223.898438 90.910156 223.898438 90.910156 C 224.21875 92.742188 223.023438 92.484375 223.023438 92.484375 Z M 91.847656 94.125 C 90.390625 94.125 88.929688 94.679688 87.820312 95.789062 C 85.601562 98.003906 85.601562 101.609375 87.820312 103.828125 C 88.894531 104.902344 90.324219 105.492188 91.847656 105.492188 C 93.367188 105.492188 94.796875 104.902344 95.875 103.828125 C 96.949219 102.753906 97.542969 101.328125 97.542969 99.808594 C 97.542969 98.289062 96.949219 96.863281 95.875 95.789062 C 94.761719 94.679688 93.304688 94.125 91.847656 94.125 Z M 51.296875 146.277344 L 47.542969 145.929688 C 47.542969 145.929688 47.84375 148.527344 43.488281 149.128906 C 43.4375 163.320312 43.285156 173.117188 43.285156 173.117188 L 35.828125 173.316406 L 36.175781 175.964844 L 50.996094 175.867188 Z M 51.296875 146.277344 " fill-opacity="1" fill-rule="nonzero"/><g clip-path="url(#1628e705ac)"><path fill="#0a0147" d="M 86.921875 137.105469 C 86.839844 136.988281 86.734375 136.90625 86.621094 136.847656 C 86.929688 136.324219 86.738281 135.96875 86.613281 135.828125 C 86.464844 135.652344 86.238281 135.546875 86 135.519531 C 86.035156 135.078125 85.800781 134.847656 85.675781 134.757812 C 85.476562 134.617188 85.21875 134.566406 84.945312 134.601562 C 84.964844 134.195312 84.753906 133.988281 84.636719 133.90625 C 84.25 133.625 83.597656 133.734375 83.089844 134.15625 C 82.851562 134.351562 82.28125 134.964844 81.855469 135.652344 C 81.847656 135.664062 81.832031 135.667969 81.824219 135.679688 L 81.386719 136.285156 C 81.359375 135.863281 81.316406 135.304688 81.25 134.648438 C 81.132812 133.519531 80.285156 132.667969 79.648438 132.703125 C 79.335938 132.714844 78.992188 132.941406 78.984375 133.542969 L 78.980469 133.910156 C 78.96875 135.128906 78.953125 136.964844 78.246094 138.636719 C 77.734375 139.84375 77.746094 140.808594 77.753906 141.449219 C 77.757812 141.769531 77.761719 142.050781 77.671875 142.203125 C 77.460938 142.628906 73.78125 147.683594 69.773438 150.957031 C 69.40625 151.1875 66.976562 150.363281 64.625 149.566406 C 60.207031 148.066406 53.566406 145.816406 47.753906 145.652344 L 47.753906 141.484375 C 48.789062 141.265625 51.984375 140.511719 52.367188 139.539062 C 52.800781 138.4375 52.941406 137.214844 52.792969 135.816406 C 53.136719 135.523438 53.875 134.808594 53.640625 134.203125 C 53.4375 133.679688 52.496094 132.976562 52.125 132.710938 C 52.027344 131.363281 51.621094 129.785156 51.445312 129.148438 L 51.945312 129.03125 C 52.027344 129.015625 52.097656 128.960938 52.136719 128.890625 C 52.175781 128.816406 52.1875 128.734375 52.160156 128.652344 C 51.039062 125.296875 47.765625 122.171875 41.953125 123.460938 C 39.300781 124.050781 34.859375 125.035156 34.113281 131.363281 C 33.933594 132.878906 33.96875 134.988281 34.003906 137.21875 C 34.019531 138.011719 34.03125 138.824219 34.035156 139.644531 C 34.046875 141.59375 34.0625 143.992188 34.074219 146.601562 C 33.421875 146.800781 30.761719 147.632812 28.648438 148.703125 C 25.449219 150.324219 12.21875 160.679688 12.859375 167.652344 C 13.476562 174.3125 24.570312 181.46875 25.140625 181.832031 C 25.234375 181.90625 25.730469 182.273438 26.671875 182.511719 C 27.707031 182.773438 28.933594 182.800781 29.328125 182.800781 C 29.71875 183.183594 30.3125 183.730469 30.949219 184.214844 C 30.726562 185.835938 27.101562 212.792969 27.101562 234.128906 C 27.101562 234.289062 27.234375 234.421875 27.394531 234.421875 L 33.082031 234.421875 L 33.082031 252.511719 C 30.253906 253.472656 22.097656 256.359375 21.90625 257.699219 C 21.84375 258.136719 21.816406 258.617188 21.824219 259.128906 C 21.824219 259.132812 21.820312 259.136719 21.820312 259.140625 C 21.820312 259.140625 21.824219 259.144531 21.824219 259.148438 C 21.824219 259.164062 21.820312 259.179688 21.824219 259.199219 C 21.828125 259.519531 21.941406 259.8125 22.125 260.050781 L 17.988281 260.050781 C 17.824219 260.050781 17.695312 260.183594 17.695312 260.34375 C 17.695312 260.507812 17.824219 260.640625 17.988281 260.640625 L 68.945312 260.640625 C 69.109375 260.640625 69.242188 260.507812 69.242188 260.34375 C 69.242188 260.183594 69.109375 260.050781 68.945312 260.050781 L 65.542969 260.050781 C 65.726562 259.8125 65.839844 259.519531 65.84375 259.199219 C 65.84375 259.179688 65.84375 259.164062 65.84375 259.148438 C 65.84375 259.144531 65.847656 259.140625 65.847656 259.140625 C 65.847656 259.136719 65.84375 259.132812 65.84375 259.128906 C 65.851562 258.617188 65.824219 258.136719 65.761719 257.699219 C 65.570312 256.359375 57.414062 253.472656 54.585938 252.511719 L 54.585938 234.421875 L 58.847656 234.421875 C 59.011719 234.421875 59.140625 234.289062 59.140625 234.128906 C 59.140625 213.460938 55.511719 185.222656 55.070312 181.867188 L 57.839844 181.867188 C 58 181.867188 58.132812 181.738281 58.132812 181.574219 L 58.132812 159.125 C 59.996094 159.390625 68.722656 160.613281 70.496094 160.375 C 77.285156 159.464844 85.738281 141.988281 86.09375 141.246094 C 86.09375 141.246094 86.09375 141.242188 86.09375 141.242188 C 87.089844 139.433594 87.414062 137.808594 86.921875 137.105469 Z M 85.699219 136.136719 C 85.742188 136.109375 85.800781 136.09375 85.867188 136.09375 C 85.976562 136.09375 86.101562 136.132812 86.167969 136.207031 C 86.257812 136.316406 86.167969 136.539062 85.929688 136.796875 C 85.363281 137.035156 84.328125 138.140625 83.996094 138.878906 C 83.945312 138.996094 83.910156 139.105469 83.890625 139.207031 C 83.804688 139.214844 83.703125 139.195312 83.632812 139.136719 C 83.457031 138.996094 83.554688 138.699219 83.628906 138.535156 C 84.011719 137.683594 84.824219 136.742188 85.699219 136.136719 Z M 85.335938 135.234375 C 85.453125 135.320312 85.421875 135.507812 85.378906 135.648438 C 85.375 135.652344 85.371094 135.652344 85.367188 135.652344 C 84.390625 136.328125 83.519531 137.339844 83.09375 138.296875 C 83.050781 138.386719 83.019531 138.472656 82.996094 138.554688 C 82.703125 138.46875 82.660156 138.324219 82.644531 138.273438 C 82.445312 137.570312 83.84375 135.960938 84.480469 135.429688 C 84.792969 135.171875 85.171875 135.121094 85.335938 135.234375 Z M 83.464844 134.605469 C 83.804688 134.324219 84.171875 134.292969 84.296875 134.382812 C 84.382812 134.441406 84.378906 134.613281 84.292969 134.839844 C 84.230469 134.882812 84.164062 134.929688 84.105469 134.980469 C 83.804688 135.226562 82.648438 136.363281 82.210938 137.414062 C 81.996094 137.359375 81.949219 137.253906 81.9375 137.214844 C 81.753906 136.636719 82.835938 135.132812 83.464844 134.605469 Z M 50.933594 146.515625 L 50.933594 175.683594 L 36.300781 175.683594 L 36.300781 173.449219 L 43.21875 173.449219 C 43.378906 173.449219 43.511719 173.316406 43.511719 173.15625 L 43.707031 149.375 C 46.882812 149.308594 47.570312 147.046875 47.714844 146.234375 C 48.765625 146.261719 49.84375 146.363281 50.933594 146.515625 Z M 51.546875 132.886719 C 51.546875 132.894531 51.550781 132.898438 51.550781 132.90625 C 51.554688 132.925781 51.558594 132.941406 51.566406 132.960938 C 51.570312 132.980469 51.578125 132.996094 51.585938 133.011719 C 51.59375 133.027344 51.605469 133.039062 51.617188 133.054688 C 51.628906 133.070312 51.640625 133.085938 51.660156 133.097656 C 51.664062 133.101562 51.667969 133.109375 51.675781 133.113281 C 52.191406 133.46875 52.96875 134.105469 53.089844 134.414062 C 53.164062 134.601562 52.734375 135.121094 52.304688 135.457031 C 52.222656 135.519531 52.179688 135.621094 52.191406 135.722656 C 52.355469 137.09375 52.234375 138.273438 51.820312 139.324219 C 51.625 139.820312 49.390625 140.554688 47.433594 140.953125 C 47.429688 140.953125 47.421875 140.957031 47.417969 140.960938 C 47.273438 140.980469 47.164062 141.097656 47.164062 141.246094 L 47.164062 145.925781 C 47.15625 146.066406 46.96875 148.710938 43.710938 148.789062 L 43.792969 138.796875 C 43.792969 138.746094 43.78125 138.703125 43.761719 138.664062 C 43.800781 138.582031 43.804688 138.484375 43.761719 138.398438 C 43.6875 138.253906 43.507812 138.195312 43.363281 138.269531 C 42.058594 138.929688 41.019531 138.585938 40.480469 138.050781 C 39.949219 137.515625 39.828125 136.773438 40.167969 136.109375 C 40.800781 134.867188 42.011719 135.019531 42.449219 135.121094 L 42.777344 136.945312 C 42.804688 137.085938 42.925781 137.1875 43.066406 137.1875 L 45.171875 137.1875 C 45.332031 137.1875 45.464844 137.054688 45.464844 136.894531 L 45.464844 130.53125 L 50.867188 129.28125 C 51.042969 129.902344 51.472656 131.5625 51.546875 132.886719 Z M 13.445312 167.597656 C 12.855469 161.203125 25.40625 151.007812 28.917969 149.226562 C 30.839844 148.25 33.238281 147.476562 34.078125 147.214844 C 34.136719 158.433594 34.210938 173.15625 34.210938 173.15625 C 34.210938 173.316406 34.34375 173.449219 34.503906 173.449219 L 35.714844 173.449219 L 35.714844 179.550781 C 34.890625 178.796875 34.039062 178.160156 33.414062 177.804688 C 32.070312 177.039062 30.792969 176.855469 29.664062 176.691406 C 29.289062 176.640625 28.925781 176.585938 28.585938 176.515625 L 28.316406 160.179688 C 28.3125 160.066406 28.246094 159.960938 28.140625 159.917969 C 28.039062 159.871094 27.917969 159.886719 27.828125 159.960938 C 27.101562 160.589844 20.707031 166.148438 20.546875 167.746094 C 20.394531 169.269531 26.074219 175.117188 27.648438 176.707031 L 24.445312 180.652344 C 21.628906 178.683594 13.933594 172.851562 13.445312 167.597656 Z M 27.992188 176.21875 C 25.183594 173.375 21.035156 168.789062 21.132812 167.804688 C 21.230469 166.835938 25.054688 163.175781 27.738281 160.820312 Z M 29.652344 182.296875 C 29.597656 182.242188 29.507812 182.21875 29.441406 182.210938 C 29.425781 182.210938 27.960938 182.234375 26.816406 181.941406 C 25.933594 181.71875 25.5 181.371094 25.5 181.367188 C 25.492188 181.363281 25.488281 181.363281 25.480469 181.359375 C 25.476562 181.355469 25.472656 181.347656 25.46875 181.34375 C 25.453125 181.335938 25.257812 181.210938 24.929688 180.988281 L 28.132812 177.039062 C 28.183594 177.070312 28.234375 177.09375 28.296875 177.09375 C 28.324219 177.089844 28.363281 177.085938 28.394531 177.078125 C 28.773438 177.160156 29.167969 177.214844 29.578125 177.273438 C 30.65625 177.429688 31.875 177.605469 33.125 178.316406 C 34.160156 178.90625 35.851562 180.316406 36.886719 181.65625 C 37.523438 182.480469 37.507812 183.082031 37.359375 183.207031 C 37.285156 183.273438 37.085938 183.207031 36.863281 182.976562 C 34.945312 180.726562 33.257812 179.835938 33.183594 179.796875 C 33.039062 179.722656 32.863281 179.78125 32.789062 179.921875 C 32.710938 180.066406 32.769531 180.246094 32.914062 180.320312 C 32.929688 180.328125 34.550781 181.1875 36.378906 183.3125 C 36.386719 183.324219 36.386719 183.332031 36.394531 183.34375 C 36.40625 183.351562 36.414062 183.359375 36.425781 183.367188 C 36.53125 183.492188 36.636719 183.621094 36.742188 183.753906 C 37.070312 184.15625 37.152344 184.511719 36.960938 184.671875 C 36.832031 184.78125 36.59375 184.792969 36.453125 184.636719 C 34.5625 182.546875 32.523438 181.0625 32.503906 181.046875 C 32.371094 180.949219 32.1875 180.980469 32.089844 181.113281 C 31.996094 181.242188 32.027344 181.425781 32.15625 181.519531 C 32.175781 181.535156 33.859375 182.765625 35.570312 184.554688 C 35.566406 184.585938 35.550781 184.628906 35.511719 184.652344 C 35.417969 184.714844 35.164062 184.710938 34.722656 184.523438 C 33.5 184.003906 31.296875 181.914062 31.273438 181.890625 C 31.15625 181.78125 30.972656 181.785156 30.859375 181.902344 C 30.746094 182.019531 30.75 182.203125 30.867188 182.316406 C 30.941406 182.386719 32.25 183.625 33.453125 184.457031 C 33.421875 184.625 33.347656 184.65625 33.316406 184.667969 C 32.867188 184.828125 31.53125 184.152344 29.652344 182.296875 Z M 39.335938 260.050781 L 23.289062 260.050781 C 22.890625 260.050781 22.5625 259.792969 22.453125 259.433594 L 40.265625 259.433594 C 40.113281 259.796875 39.757812 260.050781 39.335938 260.050781 Z M 40.34375 256.472656 L 30.449219 256.472656 L 28.699219 254.726562 C 30.21875 254.140625 31.871094 253.542969 33.46875 253 C 33.589844 252.960938 33.667969 252.847656 33.667969 252.722656 L 33.667969 234.421875 L 40.757812 234.421875 L 40.34375 252.351562 Z M 40.566406 260.050781 C 40.753906 259.824219 40.878906 259.542969 40.914062 259.230469 C 40.925781 259.203125 40.933594 259.171875 40.933594 259.140625 C 40.933594 259.128906 40.929688 259.117188 40.925781 259.109375 C 40.929688 259.085938 40.933594 259.066406 40.933594 259.046875 L 40.933594 252.359375 L 41.347656 234.421875 L 46.320312 234.421875 L 46.734375 252.351562 L 46.734375 259.046875 C 46.734375 259.066406 46.738281 259.085938 46.742188 259.109375 C 46.738281 259.117188 46.734375 259.128906 46.734375 259.140625 C 46.734375 259.171875 46.742188 259.203125 46.753906 259.230469 C 46.789062 259.542969 46.914062 259.824219 47.101562 260.050781 Z M 64.378906 260.050781 L 48.328125 260.050781 C 47.910156 260.050781 47.550781 259.796875 47.402344 259.433594 L 65.214844 259.433594 C 65.105469 259.792969 64.777344 260.050781 64.378906 260.050781 Z M 58.96875 254.726562 L 57.21875 256.472656 L 47.324219 256.472656 L 47.324219 252.34375 L 46.910156 234.421875 L 54 234.421875 L 54 252.722656 C 54 252.847656 54.078125 252.960938 54.199219 253 C 55.796875 253.542969 57.449219 254.140625 58.96875 254.726562 Z M 58.554688 233.835938 L 27.691406 233.835938 C 27.722656 213.425781 31.035156 188 31.492188 184.597656 C 32.089844 184.988281 32.691406 185.277344 33.175781 185.277344 C 33.296875 185.277344 33.410156 185.257812 33.511719 185.222656 C 33.644531 185.175781 33.851562 185.0625 33.96875 184.792969 C 34.152344 184.902344 34.328125 184.996094 34.492188 185.066406 C 34.828125 185.207031 35.109375 185.277344 35.347656 185.277344 C 35.542969 185.277344 35.710938 185.230469 35.847656 185.136719 C 35.90625 185.09375 35.945312 185.046875 35.984375 184.996094 C 35.996094 185.007812 36.007812 185.019531 36.015625 185.03125 C 36.199219 185.234375 36.464844 185.339844 36.730469 185.339844 C 36.949219 185.339844 37.167969 185.265625 37.34375 185.121094 C 37.640625 184.867188 37.789062 184.398438 37.464844 183.789062 C 37.570312 183.761719 37.664062 183.71875 37.738281 183.65625 C 38.15625 183.304688 38.214844 182.417969 37.351562 181.296875 C 37.039062 180.890625 36.675781 180.492188 36.296875 180.105469 C 36.296875 180.097656 36.300781 180.085938 36.300781 180.074219 L 36.300781 176.269531 L 50.933594 176.269531 L 50.933594 181.574219 C 50.933594 181.738281 51.066406 181.867188 51.230469 181.867188 L 54.476562 181.867188 C 54.867188 184.835938 58.519531 213.070312 58.554688 233.835938 Z M 70.417969 159.792969 C 68.550781 160.046875 57.988281 158.507812 57.882812 158.492188 C 57.796875 158.480469 57.710938 158.507812 57.644531 158.5625 C 57.582031 158.617188 57.542969 158.699219 57.542969 158.785156 L 57.542969 181.28125 L 51.523438 181.28125 L 51.523438 146.605469 C 56.195312 147.328125 60.996094 148.953125 64.433594 150.121094 C 67.214844 151.066406 68.75 151.574219 69.566406 151.574219 C 69.828125 151.574219 70.011719 151.519531 70.140625 151.414062 C 74.363281 147.964844 78.089844 142.746094 78.191406 142.472656 C 78.191406 142.472656 78.191406 142.46875 78.191406 142.46875 L 83.230469 145.40625 C 80.214844 150.777344 74.828125 159.203125 70.417969 159.792969 Z M 85.570312 140.976562 C 85.570312 140.980469 85.570312 140.980469 85.570312 140.984375 C 85.566406 140.988281 85.566406 140.988281 85.5625 140.992188 C 85.539062 141.042969 84.761719 142.648438 83.515625 144.894531 L 78.335938 141.871094 C 78.34375 141.738281 78.34375 141.597656 78.339844 141.441406 C 78.335938 140.816406 78.324219 139.957031 78.789062 138.867188 C 79.542969 137.085938 79.558594 135.179688 79.566406 133.917969 L 79.570312 133.550781 C 79.574219 133.472656 79.585938 133.292969 79.675781 133.289062 C 79.902344 133.277344 80.570312 133.800781 80.664062 134.707031 C 80.8125 136.15625 80.84375 137.132812 80.84375 137.140625 C 80.847656 137.148438 80.851562 137.15625 80.851562 137.164062 L 80.847656 137.164062 L 81.09375 139.402344 C 81.210938 140.457031 81.066406 141.878906 80.789062 142.382812 C 80.710938 142.527344 80.765625 142.707031 80.90625 142.78125 C 80.953125 142.808594 81 142.820312 81.046875 142.820312 C 81.152344 142.820312 81.253906 142.761719 81.308594 142.664062 C 81.6875 141.96875 81.796875 140.394531 81.679688 139.339844 L 81.488281 137.617188 C 81.59375 137.769531 81.769531 137.90625 82.050781 137.980469 C 82.035156 138.140625 82.039062 138.292969 82.078125 138.429688 C 82.152344 138.695312 82.375 139.023438 82.980469 139.15625 C 83.039062 139.382812 83.175781 139.523438 83.257812 139.59375 C 83.457031 139.753906 83.71875 139.820312 83.964844 139.789062 C 84.082031 139.992188 84.277344 140.117188 84.511719 140.144531 C 84.542969 140.144531 84.578125 140.148438 84.609375 140.148438 C 85.234375 140.148438 85.984375 139.523438 86.355469 139.082031 C 86.382812 139.054688 86.398438 139.019531 86.410156 138.988281 C 86.261719 139.527344 86.003906 140.191406 85.570312 140.976562 Z M 86.414062 138.964844 C 86.441406 138.859375 86.410156 138.742188 86.320312 138.667969 C 86.195312 138.5625 86.007812 138.582031 85.90625 138.707031 C 85.496094 139.195312 84.878906 139.59375 84.578125 139.558594 C 84.527344 139.554688 84.492188 139.539062 84.460938 139.472656 C 84.457031 139.46875 84.457031 139.464844 84.457031 139.457031 C 84.460938 139.425781 84.460938 139.394531 84.457031 139.367188 C 84.464844 139.308594 84.488281 139.226562 84.535156 139.117188 C 84.855469 138.402344 85.863281 137.4375 86.164062 137.339844 C 86.324219 137.320312 86.394531 137.378906 86.4375 137.441406 C 86.582031 137.648438 86.625 138.171875 86.414062 138.964844 Z M 181.179688 93.0625 L 183.667969 94.015625 C 184.136719 94.195312 184.515625 94.707031 184.65625 95.347656 L 185.382812 98.621094 C 185.410156 98.757812 185.53125 98.851562 185.667969 98.851562 C 185.808594 98.851562 185.925781 98.757812 185.957031 98.621094 L 186.679688 95.347656 C 186.824219 94.707031 187.203125 94.195312 187.671875 94.015625 L 190.160156 93.0625 C 190.273438 93.019531 190.347656 92.910156 190.347656 92.785156 C 190.347656 92.664062 190.273438 92.554688 190.160156 92.511719 L 187.671875 91.558594 C 187.203125 91.378906 186.824219 90.867188 186.679688 90.226562 L 185.957031 86.949219 C 185.925781 86.816406 185.808594 86.71875 185.667969 86.71875 C 185.53125 86.71875 185.410156 86.816406 185.382812 86.949219 L 184.65625 90.226562 C 184.515625 90.867188 184.136719 91.378906 183.667969 91.558594 L 181.179688 92.511719 C 181.066406 92.554688 180.988281 92.664062 180.988281 92.785156 C 180.988281 92.910156 181.066406 93.019531 181.179688 93.0625 Z M 183.878906 92.105469 C 184.539062 91.851562 185.042969 91.199219 185.230469 90.355469 L 185.667969 88.375 L 186.105469 90.355469 C 186.292969 91.199219 186.800781 91.851562 187.457031 92.105469 L 189.234375 92.785156 L 187.457031 93.46875 C 186.800781 93.722656 186.292969 94.375 186.105469 95.21875 L 185.667969 97.199219 L 185.230469 95.21875 C 185.042969 94.375 184.539062 93.722656 183.878906 93.46875 L 182.101562 92.785156 Z M 75.035156 86.152344 C 75.089844 86.207031 75.164062 86.238281 75.242188 86.238281 C 75.246094 86.238281 75.25 86.238281 75.253906 86.238281 L 77.714844 86.117188 L 80.820312 89.214844 C 75.058594 95.191406 75.121094 104.726562 81.019531 110.613281 C 84.007812 113.59375 87.925781 115.082031 91.847656 115.082031 C 95.765625 115.082031 99.6875 113.59375 102.671875 110.613281 C 108.640625 104.65625 108.640625 94.960938 102.671875 89.003906 C 96.773438 83.113281 87.21875 83.050781 81.234375 88.800781 L 78.132812 85.707031 L 78.253906 83.246094 C 78.257812 83.164062 78.226562 83.082031 78.167969 83.027344 L 74.746094 79.609375 C 74.664062 79.53125 74.546875 79.503906 74.441406 79.539062 C 74.335938 79.574219 74.261719 79.667969 74.246094 79.777344 L 73.949219 81.941406 L 71.78125 82.238281 C 71.667969 82.253906 71.578125 82.332031 71.539062 82.4375 C 71.503906 82.542969 71.53125 82.660156 71.613281 82.738281 Z M 84.246094 92.636719 C 80.371094 96.726562 80.429688 103.195312 84.441406 107.199219 C 86.484375 109.234375 89.164062 110.253906 91.847656 110.253906 C 94.527344 110.253906 97.210938 109.234375 99.25 107.199219 C 103.332031 103.125 103.332031 96.492188 99.25 92.417969 C 95.238281 88.414062 88.757812 88.355469 84.660156 92.222656 L 81.652344 89.214844 C 84.492188 86.488281 88.167969 85.121094 91.847656 85.121094 C 95.617188 85.121094 99.386719 86.554688 102.257812 89.417969 C 107.996094 95.148438 107.996094 104.46875 102.257812 110.199219 C 96.515625 115.929688 87.175781 115.925781 81.4375 110.199219 C 75.769531 104.539062 75.703125 95.375 81.234375 89.628906 Z M 92.054688 99.601562 L 88.5 96.050781 C 89.421875 95.230469 90.597656 94.773438 91.847656 94.773438 C 93.195312 94.773438 94.460938 95.296875 95.414062 96.25 C 96.367188 97.199219 96.890625 98.464844 96.890625 99.808594 C 96.890625 101.152344 96.367188 102.417969 95.414062 103.367188 C 93.445312 105.332031 90.246094 105.328125 88.28125 103.367188 C 86.386719 101.476562 86.324219 98.441406 88.082031 96.464844 L 91.640625 100.015625 C 91.695312 100.074219 91.773438 100.101562 91.847656 100.101562 C 91.921875 100.101562 91.996094 100.074219 92.054688 100.015625 C 92.167969 99.902344 92.167969 99.714844 92.054688 99.601562 Z M 87.863281 103.78125 C 88.960938 104.878906 90.40625 105.425781 91.847656 105.425781 C 93.289062 105.425781 94.730469 104.878906 95.828125 103.78125 C 96.894531 102.722656 97.476562 101.308594 97.476562 99.808594 C 97.476562 98.304688 96.894531 96.894531 95.828125 95.832031 C 94.765625 94.773438 93.351562 94.1875 91.847656 94.1875 C 90.441406 94.1875 89.117188 94.703125 88.082031 95.636719 L 85.078125 92.636719 C 86.976562 90.851562 89.410156 89.949219 91.847656 89.949219 C 94.378906 89.949219 96.90625 90.910156 98.835938 92.832031 C 102.6875 96.679688 102.6875 102.9375 98.835938 106.78125 C 94.980469 110.628906 88.710938 110.628906 84.859375 106.78125 C 81.078125 103.007812 81.015625 96.910156 84.660156 93.050781 L 87.667969 96.050781 C 85.679688 98.253906 85.738281 101.660156 87.863281 103.78125 Z M 74.25 82.492188 C 74.382812 82.472656 74.484375 82.371094 74.503906 82.242188 L 74.75 80.445312 L 77.660156 83.347656 L 77.554688 85.539062 L 75.355469 85.644531 L 72.445312 82.738281 Z M 163.804688 75.320312 C 163.292969 75.320312 162.875 75.734375 162.875 76.246094 C 162.875 76.757812 163.292969 77.171875 163.804688 77.171875 C 164.316406 77.171875 164.730469 76.757812 164.730469 76.246094 C 164.730469 75.734375 164.316406 75.320312 163.804688 75.320312 Z M 163.804688 76.585938 C 163.617188 76.585938 163.464844 76.433594 163.464844 76.246094 C 163.464844 76.058594 163.617188 75.90625 163.804688 75.90625 C 163.992188 75.90625 164.144531 76.058594 164.144531 76.246094 C 164.144531 76.433594 163.992188 76.585938 163.804688 76.585938 Z M 152.113281 100.09375 C 152 99.980469 151.8125 99.980469 151.695312 100.09375 L 145.191406 106.585938 C 145.078125 106.699219 145.078125 106.886719 145.191406 107 C 145.25 107.058594 145.324219 107.085938 145.402344 107.085938 C 145.476562 107.085938 145.550781 107.058594 145.609375 107 L 152.113281 100.507812 C 152.226562 100.394531 152.226562 100.207031 152.113281 100.09375 Z M 281.027344 92.929688 C 280.664062 93.179688 280.328125 93.382812 280 93.578125 C 279.089844 94.121094 278.304688 94.589844 277.925781 95.707031 C 277.539062 96.835938 278.0625 97.773438 278.085938 97.8125 C 278.140625 97.90625 278.238281 97.960938 278.339844 97.960938 C 278.390625 97.960938 278.4375 97.949219 278.484375 97.921875 C 278.625 97.84375 278.675781 97.664062 278.597656 97.523438 C 278.59375 97.515625 278.183594 96.769531 278.480469 95.894531 C 278.792969 94.984375 279.425781 94.605469 280.304688 94.082031 C 280.621094 93.890625 280.984375 93.671875 281.363281 93.410156 C 281.496094 93.316406 281.53125 93.132812 281.4375 93 C 281.34375 92.867188 281.160156 92.835938 281.027344 92.929688 Z M 155.480469 103.683594 C 155.363281 103.566406 155.175781 103.566406 155.0625 103.683594 L 148.558594 110.175781 C 148.441406 110.289062 148.441406 110.476562 148.558594 110.589844 C 148.617188 110.648438 148.691406 110.675781 148.765625 110.675781 C 148.839844 110.675781 148.917969 110.648438 148.972656 110.589844 L 155.480469 104.097656 C 155.59375 103.984375 155.59375 103.796875 155.480469 103.683594 Z M 287.390625 84.203125 C 287.308594 84.082031 287.199219 84 287.074219 83.933594 C 287.195312 83.417969 287.421875 82.253906 287.210938 81.484375 C 287.058594 80.925781 286.664062 80.554688 286.1875 80.515625 C 285.980469 80.496094 285.777344 80.546875 285.59375 80.644531 C 285.515625 80.191406 285.300781 79.628906 284.695312 79.429688 C 284.429688 79.339844 284.15625 79.367188 283.90625 79.5 C 283.441406 79.753906 283.027344 80.414062 282.652344 81.496094 C 282.480469 81.257812 282.230469 81.0625 281.863281 81.007812 C 280.945312 80.875 280.542969 81.863281 279.976562 83.238281 L 279.84375 83.558594 C 279.003906 85.59375 277.898438 87.761719 276.917969 89.675781 C 276.898438 89.722656 276.875 89.765625 276.851562 89.808594 C 276.847656 89.617188 276.84375 89.40625 276.839844 89.167969 C 276.832031 89.066406 276.652344 86.726562 275.570312 85.859375 C 275.234375 85.589844 274.847656 85.480469 274.421875 85.542969 C 273.394531 85.691406 273.550781 87.351562 273.710938 89.109375 C 273.742188 89.449219 273.773438 89.78125 273.792969 90.082031 C 273.792969 90.097656 273.855469 91.625 273.394531 92.835938 C 272.886719 94.15625 272.722656 95.128906 273.222656 96.785156 C 273.722656 98.453125 273.765625 100.007812 273.582031 100.808594 C 271.246094 111.101562 263.160156 136.492188 259.140625 138.09375 C 258.523438 138.339844 256.316406 138.378906 255.210938 138.375 L 255.210938 135.152344 C 255.234375 135.113281 255.253906 135.074219 255.257812 135.03125 C 255.371094 134.148438 256.472656 133.042969 257.53125 131.976562 C 258.183594 131.320312 258.859375 130.640625 259.359375 129.972656 C 261.019531 127.742188 261.511719 125.140625 260.710938 122.835938 C 259.867188 120.417969 257.710938 118.636719 254.640625 117.816406 C 251.042969 116.855469 246.613281 117.644531 245.480469 120.988281 C 245.480469 120.992188 245.480469 120.992188 245.480469 120.992188 C 245.433594 121.105469 244.417969 123.707031 244.277344 125.445312 C 243.90625 125.707031 242.964844 126.414062 242.761719 126.9375 C 242.527344 127.539062 243.261719 128.257812 243.605469 128.546875 C 243.457031 129.949219 243.597656 131.167969 244.03125 132.273438 C 244.414062 133.246094 247.609375 133.996094 248.648438 134.21875 L 248.648438 138.375 C 247.667969 138.382812 245.585938 138.34375 244.960938 138.09375 C 240.792969 136.429688 234.988281 117.738281 233.171875 108.597656 C 232.714844 106.273438 232.019531 102.613281 231.3125 97.703125 C 231.175781 96.765625 231.28125 95.6875 231.390625 94.546875 C 231.507812 93.355469 231.625 92.121094 231.46875 90.972656 C 231.160156 88.679688 230.117188 86.757812 229.328125 86.292969 C 228.984375 86.085938 228.339844 86.125 227.628906 86.289062 L 227.933594 85.273438 L 230.804688 85.671875 C 230.949219 85.695312 231.085938 85.601562 231.128906 85.464844 L 231.425781 84.472656 L 231.789062 84.582031 C 231.984375 84.640625 232.179688 84.667969 232.371094 84.667969 C 233.25 84.667969 234.0625 84.097656 234.328125 83.214844 L 234.957031 81.105469 C 235.28125 80.03125 234.664062 78.894531 233.589844 78.574219 L 233.222656 78.464844 L 233.519531 77.472656 C 233.5625 77.335938 233.496094 77.1875 233.363281 77.125 L 220.117188 70.859375 L 215.199219 65.128906 C 215.128906 65.046875 215.019531 65.007812 214.914062 65.03125 C 214.808594 65.054688 214.722656 65.132812 214.691406 65.234375 L 212.445312 72.746094 C 212.425781 72.738281 212.410156 72.726562 212.390625 72.722656 C 212.390625 72.722656 212.390625 72.722656 212.386719 72.722656 C 211.066406 72.328125 209.644531 73.164062 209.222656 74.582031 C 208.796875 76 209.527344 77.476562 210.847656 77.871094 C 210.867188 77.875 210.890625 77.875 210.910156 77.882812 L 208.660156 85.394531 C 208.628906 85.496094 208.660156 85.609375 208.734375 85.683594 C 208.789062 85.742188 208.867188 85.769531 208.941406 85.769531 C 208.972656 85.769531 209 85.765625 209.027344 85.757812 L 216.289062 83.65625 L 224.054688 84.734375 L 223.671875 86.027344 C 222.925781 85.59375 222.273438 85.339844 222.242188 85.328125 C 221.65625 85.035156 220.859375 85.277344 220.527344 85.847656 C 220.351562 86.148438 220.320312 86.554688 220.578125 86.976562 C 220.351562 86.898438 220.21875 86.863281 220.207031 86.859375 C 219.542969 86.652344 218.753906 87.03125 218.519531 87.664062 C 218.453125 87.84375 218.34375 88.324219 218.777344 88.804688 C 218.410156 88.945312 218.097656 89.253906 217.972656 89.652344 C 217.828125 90.089844 217.929688 90.644531 218.511719 91.066406 C 218.371094 91.128906 218.242188 91.210938 218.132812 91.324219 C 217.851562 91.621094 217.738281 92.039062 217.816406 92.480469 C 217.816406 92.699219 217.890625 93.742188 219.054688 95.246094 C 219.988281 96.449219 220.652344 97.496094 221.144531 98.550781 C 221.304688 98.890625 221.347656 99.019531 221.351562 99.027344 C 222.105469 106.707031 226.699219 132.796875 234.828125 148.921875 C 236.789062 152.816406 235.335938 178.425781 235.320312 178.683594 C 235.316406 178.765625 235.34375 178.84375 235.402344 178.902344 C 235.457031 178.960938 235.535156 178.996094 235.613281 178.996094 L 239.085938 178.996094 C 238.96875 180.53125 237.667969 197.652344 237.253906 216.816406 C 236.804688 237.597656 236.800781 251.089844 236.800781 251.226562 C 236.800781 251.386719 236.933594 251.519531 237.09375 251.519531 L 238.128906 251.519531 L 238.128906 252.425781 C 235.273438 253.394531 227.023438 256.316406 226.828125 257.667969 C 226.765625 258.109375 226.742188 258.597656 226.746094 259.109375 C 226.746094 259.113281 226.746094 259.117188 226.746094 259.121094 C 226.746094 259.125 226.746094 259.128906 226.746094 259.132812 C 226.746094 259.148438 226.746094 259.164062 226.746094 259.183594 C 226.75 259.507812 226.867188 259.804688 227.054688 260.046875 L 223.996094 260.046875 C 223.832031 260.046875 223.703125 260.179688 223.703125 260.34375 C 223.703125 260.503906 223.832031 260.636719 223.996094 260.636719 L 277.414062 260.636719 C 277.574219 260.636719 277.707031 260.503906 277.707031 260.34375 C 277.707031 260.179688 277.574219 260.046875 277.414062 260.046875 L 274.671875 260.046875 C 274.859375 259.804688 274.976562 259.507812 274.980469 259.183594 C 274.984375 259.164062 274.980469 259.148438 274.980469 259.128906 C 274.980469 259.128906 274.984375 259.125 274.984375 259.121094 C 274.984375 259.117188 274.980469 259.117188 274.980469 259.113281 C 274.988281 258.59375 274.960938 258.105469 274.898438 257.667969 C 274.703125 256.316406 266.457031 253.394531 263.601562 252.425781 L 263.601562 251.519531 L 264.703125 251.519531 C 264.863281 251.519531 264.996094 251.386719 264.996094 251.226562 C 265 250.941406 265.238281 222.289062 265.558594 200.847656 C 265.730469 189.507812 265.53125 185.257812 265.074219 178.996094 L 268.488281 178.996094 C 268.570312 178.996094 268.644531 178.960938 268.703125 178.902344 C 268.757812 178.84375 268.785156 178.765625 268.78125 178.683594 C 268.765625 178.425781 267.3125 152.816406 269.277344 148.921875 C 277.40625 132.792969 281.996094 106.707031 282.75 99.019531 C 282.792969 98.382812 283.117188 97.605469 283.574219 96.578125 C 283.65625 96.398438 283.957031 95.820312 284.304688 95.148438 C 284.960938 93.886719 285.859375 92.160156 286.214844 91.3125 C 286.675781 90.222656 287.171875 88.96875 287.371094 87.910156 C 287.761719 85.804688 287.769531 84.730469 287.390625 84.203125 Z M 254.492188 118.386719 C 257.367188 119.152344 259.378906 120.800781 260.152344 123.03125 C 260.890625 125.148438 260.429688 127.550781 258.886719 129.621094 C 258.410156 130.257812 257.753906 130.921875 257.117188 131.5625 C 256.109375 132.574219 255.152344 133.535156 254.800781 134.464844 C 254.386719 133.992188 253.953125 133.066406 253.730469 131.871094 C 253.972656 131.925781 254.210938 131.953125 254.429688 131.953125 C 255.25 131.953125 255.910156 131.621094 256.335938 131.195312 C 257.042969 130.488281 257.207031 129.460938 256.757812 128.578125 C 256.003906 127.097656 254.527344 127.082031 253.734375 127.300781 C 253.25 126.988281 251.34375 125.539062 252.292969 122.742188 C 252.316406 122.667969 252.308594 122.582031 252.273438 122.511719 C 252.234375 122.4375 252.167969 122.386719 252.085938 122.367188 C 248.90625 121.523438 246.910156 121.058594 246.160156 120.890625 C 247.335938 118.132812 251.261719 117.523438 254.492188 118.386719 Z M 244.582031 132.058594 C 244.164062 131.003906 244.042969 129.828125 244.207031 128.457031 C 244.21875 128.355469 244.175781 128.253906 244.097656 128.191406 C 243.664062 127.855469 243.234375 127.335938 243.308594 127.148438 C 243.425781 126.84375 244.171875 126.230469 244.6875 125.875 C 244.765625 125.839844 244.816406 125.769531 244.835938 125.683594 C 244.839844 125.671875 244.84375 125.65625 244.847656 125.640625 C 244.847656 125.632812 244.851562 125.628906 244.851562 125.621094 C 244.925781 124.261719 245.675781 122.144531 245.9375 121.441406 C 246.585938 121.585938 248.507812 122.03125 251.640625 122.855469 C 250.683594 126.238281 253.519531 127.863281 253.550781 127.878906 C 253.625 127.917969 253.710938 127.925781 253.789062 127.898438 C 253.859375 127.875 255.46875 127.339844 256.234375 128.84375 C 256.570312 129.507812 256.449219 130.25 255.917969 130.78125 C 255.453125 131.25 254.609375 131.5625 253.542969 131.214844 C 253.503906 131.183594 253.457031 131.167969 253.40625 131.160156 C 253.285156 131.113281 253.160156 131.066406 253.035156 131.003906 C 252.890625 130.929688 252.710938 130.988281 252.640625 131.132812 C 252.566406 131.277344 252.625 131.453125 252.769531 131.527344 C 252.882812 131.585938 252.992188 131.628906 253.105469 131.675781 C 253.371094 133.414062 254.03125 134.613281 254.621094 135.101562 L 254.621094 138.527344 C 254.378906 138.839844 253.261719 140.085938 250.984375 140.085938 C 249.300781 140.085938 249.238281 138.8125 249.234375 138.667969 L 249.234375 133.976562 C 249.234375 133.832031 249.125 133.714844 248.980469 133.691406 C 248.976562 133.691406 248.972656 133.6875 248.964844 133.6875 C 247.007812 133.289062 244.777344 132.554688 244.582031 132.058594 Z M 233.421875 79.136719 C 233.792969 79.246094 234.097656 79.496094 234.28125 79.835938 C 234.464844 80.175781 234.503906 80.566406 234.394531 80.9375 L 233.761719 83.046875 C 233.652344 83.417969 233.402344 83.722656 233.0625 83.90625 C 232.722656 84.089844 232.328125 84.132812 231.957031 84.019531 L 231.59375 83.910156 L 233.054688 79.027344 Z M 209.785156 74.75 C 210.0625 73.824219 210.871094 73.210938 211.71875 73.210938 C 211.886719 73.210938 212.054688 73.234375 212.21875 73.285156 C 212.238281 73.289062 212.257812 73.296875 212.277344 73.304688 L 211.675781 75.3125 L 211.074219 77.324219 C 211.054688 77.320312 211.035156 77.3125 211.015625 77.308594 C 210.003906 77.007812 209.453125 75.859375 209.785156 74.75 Z M 216.304688 83.066406 C 216.292969 83.066406 216.28125 83.066406 216.265625 83.066406 C 216.238281 83.066406 216.210938 83.070312 216.183594 83.078125 L 209.378906 85.046875 L 211.566406 77.738281 L 212.914062 73.226562 C 212.917969 73.226562 212.914062 73.226562 212.917969 73.226562 L 215.101562 65.917969 L 219.710938 71.289062 C 219.738281 71.320312 219.769531 71.347656 219.808594 71.363281 L 223.847656 73.273438 L 220.726562 83.679688 Z M 221.316406 83.761719 L 224.386719 73.527344 L 232.882812 77.546875 L 232.609375 78.464844 C 232.582031 78.496094 232.5625 78.53125 232.550781 78.570312 C 232.539062 78.609375 232.535156 78.648438 232.542969 78.6875 L 230.976562 83.914062 C 230.953125 83.945312 230.933594 83.980469 230.921875 84.019531 C 230.910156 84.058594 230.90625 84.097656 230.910156 84.136719 L 230.636719 85.054688 Z M 227.34375 85.191406 L 226.960938 86.472656 C 226.332031 86.671875 225.703125 86.941406 225.226562 87.203125 C 224.929688 86.886719 224.5625 86.597656 224.191406 86.347656 L 224.632812 84.851562 C 224.636719 84.839844 224.636719 84.828125 224.636719 84.816406 Z M 221.035156 86.140625 C 221.195312 85.867188 221.640625 85.683594 222 85.863281 C 222.019531 85.871094 223.746094 86.542969 224.71875 87.523438 C 224.324219 87.816406 224.03125 88.121094 223.832031 88.417969 C 222.246094 87.511719 221.589844 87.160156 221.585938 87.160156 C 221.0625 86.816406 220.859375 86.445312 221.035156 86.140625 Z M 219.070312 87.867188 C 219.183594 87.558594 219.632812 87.296875 220.042969 87.421875 C 220.054688 87.425781 221.308594 87.773438 223.574219 88.945312 C 223.578125 88.945312 223.582031 88.945312 223.585938 88.949219 C 223.535156 89.175781 223.546875 89.390625 223.644531 89.578125 C 223.761719 89.792969 223.972656 89.9375 224.257812 90.027344 C 224.265625 90.140625 224.242188 90.234375 224.175781 90.289062 C 224.089844 90.359375 223.9375 90.363281 223.761719 90.304688 C 221 89.363281 219.894531 88.84375 219.871094 88.835938 C 219.238281 88.5625 218.945312 88.210938 219.070312 87.867188 Z M 223.449219 92.621094 C 223.796875 92.53125 224.109375 92.285156 224.246094 91.941406 C 224.367188 91.644531 224.347656 91.277344 224.097656 90.925781 C 224.3125 90.898438 224.464844 90.8125 224.550781 90.742188 C 224.730469 90.59375 224.832031 90.371094 224.847656 90.125 C 225.148438 90.136719 225.496094 90.109375 225.890625 90.042969 L 224.09375 96.046875 L 221.515625 95.277344 L 221.816406 94.265625 C 221.972656 94.300781 222.140625 94.34375 222.351562 94.394531 C 222.871094 94.527344 223.425781 94.179688 223.601562 93.609375 C 223.691406 93.316406 223.664062 92.957031 223.449219 92.621094 Z M 218.53125 89.832031 C 218.632812 89.515625 219 89.230469 219.324219 89.3125 C 219.339844 89.320312 220.804688 89.804688 222.886719 90.730469 C 223.53125 91.015625 223.835938 91.386719 223.703125 91.722656 C 223.601562 91.964844 223.269531 92.160156 222.960938 92.046875 C 220.667969 91.226562 219.429688 90.863281 219.285156 90.824219 C 218.679688 90.585938 218.402344 90.226562 218.53125 89.832031 Z M 231.847656 140.589844 C 225.9375 124.996094 222.570312 105.429688 221.933594 98.929688 C 221.914062 98.851562 221.863281 98.695312 221.679688 98.300781 C 221.167969 97.207031 220.480469 96.125 219.519531 94.886719 C 218.382812 93.417969 218.402344 92.476562 218.402344 92.46875 C 218.402344 92.445312 218.402344 92.421875 218.398438 92.398438 C 218.34375 92.132812 218.402344 91.894531 218.558594 91.730469 C 218.695312 91.585938 218.894531 91.519531 219.089844 91.546875 C 219.886719 91.660156 220.429688 91.78125 222.261719 92.457031 C 222.867188 92.679688 223.160156 93.046875 223.039062 93.4375 C 222.957031 93.703125 222.707031 93.878906 222.492188 93.828125 C 221.390625 93.550781 221.132812 93.5 220.664062 93.410156 L 220.554688 93.386719 C 220.394531 93.359375 220.242188 93.460938 220.210938 93.621094 C 220.179688 93.777344 220.285156 93.933594 220.441406 93.964844 L 220.550781 93.984375 C 220.789062 94.03125 220.972656 94.066406 221.242188 94.128906 L 220.867188 95.390625 C 220.84375 95.464844 220.851562 95.546875 220.890625 95.617188 C 220.925781 95.683594 220.988281 95.734375 221.0625 95.757812 L 224.207031 96.695312 C 224.234375 96.703125 224.265625 96.707031 224.292969 96.707031 C 224.339844 96.707031 224.390625 96.695312 224.433594 96.671875 C 224.5 96.636719 224.554688 96.570312 224.574219 96.496094 L 226.488281 90.109375 C 226.503906 90.046875 226.496094 89.980469 226.476562 89.925781 C 226.78125 89.851562 227.105469 89.769531 227.457031 89.660156 C 226.765625 90.808594 225.640625 93.160156 226.238281 95.605469 C 226.277344 95.761719 226.433594 95.859375 226.59375 95.820312 C 226.75 95.78125 226.847656 95.625 226.808594 95.464844 C 226.058594 92.386719 228.386719 89.324219 228.410156 89.292969 C 228.492188 89.191406 228.492188 89.046875 228.417969 88.941406 C 228.339844 88.835938 228.203125 88.792969 228.082031 88.835938 C 225.3125 89.816406 224.308594 89.570312 224.164062 89.300781 C 224.046875 89.074219 224.355469 88.523438 225.082031 87.984375 C 226.097656 87.234375 228.535156 86.503906 229.03125 86.796875 C 229.613281 87.140625 230.597656 88.925781 230.886719 91.050781 C 231.03125 92.132812 230.917969 93.332031 230.804688 94.488281 C 230.691406 95.667969 230.585938 96.78125 230.730469 97.785156 C 231.4375 102.710938 232.132812 106.382812 232.597656 108.710938 C 233.859375 115.070312 237.742188 128.960938 241.6875 135.390625 Z M 244.449219 260.046875 L 228.222656 260.046875 C 227.820312 260.046875 227.484375 259.785156 227.375 259.417969 L 245.394531 259.417969 C 245.242188 259.785156 244.875 260.046875 244.449219 260.046875 Z M 245.472656 258.828125 L 227.339844 258.828125 C 227.34375 258.449219 227.363281 258.085938 227.410156 257.753906 C 227.589844 257.03125 233.214844 254.714844 238.375 252.960938 L 240.75 254.613281 L 240.132812 256.105469 C 240.085938 256.21875 240.117188 256.351562 240.207031 256.433594 C 240.261719 256.484375 240.332031 256.511719 240.40625 256.511719 C 240.453125 256.511719 240.5 256.5 240.542969 256.480469 L 242.242188 255.59375 L 245.472656 255.59375 Z M 245.472656 255.007812 L 242.171875 255.007812 C 242.125 255.007812 242.078125 255.019531 242.035156 255.042969 L 240.984375 255.585938 L 241.382812 254.621094 C 241.4375 254.492188 241.394531 254.347656 241.28125 254.269531 L 238.714844 252.480469 L 238.714844 251.519531 L 245.472656 251.519531 Z M 245.683594 260.046875 C 245.878906 259.816406 246.003906 259.53125 246.042969 259.214844 C 246.050781 259.1875 246.058594 259.15625 246.058594 259.121094 C 246.058594 259.109375 246.054688 259.101562 246.054688 259.089844 C 246.054688 259.070312 246.058594 259.050781 246.058594 259.027344 L 246.058594 251.519531 L 247.398438 251.519531 C 247.550781 251.519531 247.679688 251.398438 247.691406 251.246094 L 252.003906 195.523438 L 254.660156 251.238281 C 254.667969 251.394531 254.796875 251.519531 254.953125 251.519531 L 255.667969 251.519531 L 255.667969 259.027344 C 255.667969 259.050781 255.671875 259.070312 255.671875 259.089844 C 255.671875 259.101562 255.667969 259.109375 255.667969 259.121094 C 255.667969 259.15625 255.675781 259.1875 255.683594 259.214844 C 255.722656 259.53125 255.847656 259.816406 256.042969 260.046875 Z M 273.503906 260.046875 L 257.277344 260.046875 C 256.851562 260.046875 256.484375 259.785156 256.332031 259.417969 L 274.351562 259.417969 C 274.242188 259.785156 273.910156 260.046875 273.503906 260.046875 Z M 274.3125 257.753906 C 274.363281 258.082031 274.382812 258.445312 274.386719 258.828125 L 256.253906 258.828125 L 256.253906 255.59375 L 259.484375 255.59375 L 261.1875 256.480469 C 261.230469 256.5 261.273438 256.511719 261.320312 256.511719 C 261.394531 256.511719 261.464844 256.484375 261.519531 256.433594 C 261.609375 256.351562 261.640625 256.21875 261.59375 256.105469 L 260.976562 254.613281 L 263.351562 252.960938 C 268.511719 254.714844 274.136719 257.03125 274.3125 257.753906 Z M 260.34375 254.621094 L 260.742188 255.585938 L 259.691406 255.042969 C 259.648438 255.019531 259.601562 255.007812 259.554688 255.007812 L 256.253906 255.007812 L 256.253906 251.519531 L 263.011719 251.519531 L 263.011719 252.480469 L 260.445312 254.269531 C 260.335938 254.347656 260.289062 254.492188 260.34375 254.621094 Z M 264.972656 200.839844 C 264.667969 221.121094 264.4375 247.851562 264.410156 250.929688 L 255.234375 250.929688 L 252.371094 190.796875 C 252.363281 190.640625 252.234375 190.519531 252.082031 190.515625 C 252.078125 190.515625 252.078125 190.515625 252.074219 190.515625 C 251.921875 190.515625 251.792969 190.632812 251.78125 190.785156 L 247.125 250.929688 L 237.390625 250.929688 C 237.394531 248.851562 237.429688 235.914062 237.839844 216.828125 C 238.257812 197.511719 239.578125 180.265625 239.675781 178.996094 L 264.484375 178.996094 C 264.941406 185.265625 265.140625 189.496094 264.972656 200.839844 Z M 286.789062 87.804688 C 286.601562 88.8125 286.09375 90.085938 285.671875 91.085938 C 285.324219 91.910156 284.433594 93.625 283.78125 94.878906 C 283.414062 95.585938 283.125 96.144531 283.039062 96.339844 C 282.554688 97.425781 282.210938 98.246094 282.164062 98.972656 C 281.527344 105.441406 278.160156 125.015625 272.246094 140.613281 L 262.214844 135.3125 C 266.652344 127.652344 272.289062 109.164062 274.15625 100.941406 C 274.394531 99.886719 274.246094 98.148438 273.785156 96.613281 C 273.332031 95.113281 273.476562 94.269531 273.941406 93.046875 C 274.449219 91.71875 274.382812 90.125 274.382812 90.050781 C 274.359375 89.738281 274.328125 89.398438 274.296875 89.058594 C 274.199219 87.984375 274.035156 86.191406 274.503906 86.125 C 274.765625 86.085938 274.992188 86.148438 275.203125 86.316406 C 275.933594 86.902344 276.210938 88.605469 276.253906 89.195312 C 276.269531 90.105469 276.28125 90.675781 276.285156 90.925781 C 276.15625 91.183594 276.027344 91.441406 275.90625 91.683594 C 275.835938 91.828125 275.894531 92.003906 276.042969 92.074219 C 276.082031 92.097656 276.128906 92.105469 276.171875 92.105469 C 276.28125 92.105469 276.382812 92.046875 276.433594 91.941406 C 276.535156 91.734375 276.648438 91.511719 276.761719 91.292969 C 276.832031 91.238281 276.878906 91.152344 276.878906 91.054688 C 277.058594 90.699219 277.246094 90.328125 277.445312 89.945312 C 278.425781 88.019531 279.539062 85.839844 280.390625 83.78125 L 280.523438 83.460938 C 281.03125 82.222656 281.335938 81.527344 281.777344 81.589844 C 282.242188 81.660156 282.359375 82.164062 282.386719 82.363281 C 282.375 82.410156 282.363281 82.453125 282.347656 82.5 C 281.597656 85.332031 280.609375 87.234375 279.46875 89.433594 C 279.394531 89.578125 279.449219 89.753906 279.59375 89.828125 C 279.636719 89.851562 279.683594 89.863281 279.726562 89.863281 C 279.835938 89.863281 279.9375 89.804688 279.992188 89.703125 C 281.148438 87.472656 282.148438 85.546875 282.917969 82.652344 C 282.925781 82.625 282.929688 82.609375 282.9375 82.585938 C 282.96875 82.535156 282.988281 82.480469 282.984375 82.417969 C 283.457031 80.730469 283.898438 80.171875 284.1875 80.015625 C 284.296875 79.957031 284.394531 79.949219 284.511719 79.984375 C 285.03125 80.15625 285.054688 80.929688 285.046875 81.171875 C 284.980469 81.269531 284.914062 81.378906 284.859375 81.5 C 284.640625 81.976562 284.449219 82.566406 284.230469 83.25 C 283.972656 84.058594 283.675781 84.976562 283.265625 85.894531 C 282.804688 86.917969 281.332031 89.960938 281.316406 89.992188 C 281.246094 90.136719 281.308594 90.3125 281.453125 90.382812 C 281.496094 90.402344 281.539062 90.414062 281.582031 90.414062 C 281.691406 90.414062 281.796875 90.351562 281.847656 90.246094 C 281.863281 90.21875 283.339844 87.167969 283.800781 86.136719 C 284.226562 85.1875 284.527344 84.253906 284.792969 83.425781 C 285.003906 82.761719 285.1875 82.1875 285.394531 81.75 C 285.441406 81.640625 285.496094 81.546875 285.554688 81.464844 C 285.554688 81.460938 285.558594 81.460938 285.558594 81.457031 C 285.734375 81.210938 285.9375 81.078125 286.140625 81.101562 C 286.363281 81.121094 286.558594 81.324219 286.644531 81.636719 C 286.820312 82.292969 286.601562 83.378906 286.492188 83.832031 C 285.671875 83.957031 285.214844 85.246094 284.6875 86.71875 L 284.484375 87.273438 C 284.0625 88.414062 282.949219 90.617188 282.9375 90.640625 C 282.867188 90.785156 282.921875 90.960938 283.070312 91.035156 C 283.210938 91.109375 283.390625 91.050781 283.464844 90.90625 C 283.511719 90.8125 284.605469 88.648438 285.039062 87.476562 L 285.238281 86.917969 C 285.65625 85.765625 286.164062 84.34375 286.679688 84.410156 C 286.789062 84.425781 286.855469 84.464844 286.914062 84.542969 C 287.296875 85.085938 286.917969 87.132812 286.789062 87.804688 Z M 122.542969 47.03125 L 125.746094 48.257812 C 126.371094 48.5 126.878906 49.175781 127.066406 50.027344 L 128 54.242188 C 128.03125 54.375 128.148438 54.472656 128.289062 54.472656 C 128.425781 54.472656 128.546875 54.375 128.574219 54.242188 L 129.507812 50.027344 C 129.695312 49.175781 130.203125 48.5 130.832031 48.257812 L 134.03125 47.03125 C 134.144531 46.988281 134.21875 46.878906 134.21875 46.757812 C 134.21875 46.636719 134.144531 46.527344 134.03125 46.480469 L 130.832031 45.253906 C 130.203125 45.011719 129.695312 44.335938 129.507812 43.484375 L 128.574219 39.269531 C 128.546875 39.136719 128.425781 39.039062 128.289062 39.039062 C 128.148438 39.039062 128.03125 39.136719 128 39.269531 L 127.066406 43.484375 C 126.878906 44.335938 126.371094 45.011719 125.746094 45.253906 L 122.542969 46.480469 C 122.429688 46.527344 122.355469 46.636719 122.355469 46.757812 C 122.355469 46.878906 122.429688 46.988281 122.542969 47.03125 Z M 158.480469 114.464844 C 160.734375 112.214844 161.976562 109.21875 161.976562 106.035156 C 161.976562 102.847656 160.734375 99.855469 158.480469 97.601562 C 153.824219 92.953125 146.242188 92.953125 141.585938 97.601562 C 136.925781 102.253906 136.925781 109.816406 141.585938 114.464844 C 143.839844 116.71875 146.839844 117.960938 150.03125 117.960938 C 153.222656 117.960938 156.222656 116.71875 158.480469 114.464844 Z M 142 98.019531 C 144.214844 95.808594 147.121094 94.703125 150.03125 94.703125 C 152.941406 94.703125 155.847656 95.808594 158.0625 98.019531 C 160.207031 100.160156 161.390625 103.007812 161.390625 106.035156 C 161.390625 109.0625 160.207031 111.910156 158.0625 114.050781 C 155.917969 116.191406 153.066406 117.371094 150.03125 117.371094 C 146.996094 117.371094 144.144531 116.191406 142 114.050781 C 137.570312 109.628906 137.570312 102.4375 142 98.019531 Z M 195.714844 215.90625 C 195.691406 215.769531 195.574219 215.667969 195.433594 215.667969 L 194.105469 215.667969 C 193.554688 213.15625 191.480469 211.308594 188.917969 211.054688 C 188.917969 211.042969 188.917969 211.027344 188.917969 211.011719 C 188.917969 205.726562 184.609375 201.421875 179.3125 201.421875 C 174.605469 201.421875 170.605469 204.839844 169.84375 209.433594 C 169.042969 209.09375 168.203125 208.921875 167.332031 208.921875 C 166.863281 208.921875 166.410156 208.972656 165.96875 209.066406 C 165.648438 207.921875 162.992188 198.359375 162.296875 195.863281 L 164.503906 195.863281 C 165.113281 195.863281 165.609375 195.367188 165.609375 194.761719 L 165.609375 192.902344 C 165.609375 192.292969 165.113281 191.800781 164.503906 191.800781 L 163.097656 191.800781 L 160.300781 180.535156 L 167.101562 180.535156 C 167.261719 180.535156 167.394531 180.40625 167.394531 180.242188 L 167.394531 175.941406 L 169.75 175.941406 C 169.894531 175.941406 170.015625 175.835938 170.039062 175.695312 L 170.433594 173.269531 C 171.035156 169.59375 171.78125 165.03125 172.519531 159.882812 C 174.496094 159.945312 182.03125 162.769531 183.65625 165.917969 C 186.820312 172.042969 188.894531 180.65625 190.410156 186.945312 C 190.917969 189.046875 191.355469 190.863281 191.769531 192.347656 C 193.027344 196.851562 193.324219 197.839844 193.890625 199.066406 C 194.464844 200.3125 195.261719 200.5 195.683594 200.5 C 195.6875 200.5 195.6875 200.5 195.6875 200.5 C 196.46875 200.5 197.230469 199.910156 197.679688 198.957031 C 198.039062 198.183594 197.984375 197.183594 197.910156 195.792969 C 197.886719 195.316406 197.855469 194.789062 197.84375 194.214844 C 197.6875 187.890625 195.617188 157.503906 193.3125 149.410156 C 191.027344 141.375 176.347656 129.742188 175.511719 129.085938 C 175.96875 117.746094 175.570312 106.089844 173.453125 95.722656 C 168.300781 70.492188 156.089844 52.179688 150.257812 51.9375 C 150.242188 51.9375 150.230469 51.933594 150.21875 51.933594 L 150.140625 51.933594 C 150.128906 51.933594 150.113281 51.9375 150.101562 51.9375 C 145.722656 52.121094 137.746094 62.488281 131.863281 78.324219 C 131.800781 78.378906 131.757812 78.457031 131.757812 78.542969 C 131.757812 78.558594 131.765625 78.574219 131.769531 78.589844 C 129.855469 83.777344 128.167969 89.539062 126.90625 95.722656 C 124.769531 106.179688 124.363281 117.796875 124.824219 129.101562 C 123.808594 129.90625 109.316406 141.429688 107.046875 149.410156 C 104.742188 157.5 102.667969 187.890625 102.515625 194.210938 C 102.5 194.789062 102.472656 195.316406 102.449219 195.792969 C 102.375 197.183594 102.320312 198.183594 102.679688 198.957031 C 103.128906 199.910156 103.890625 200.5 104.671875 200.5 C 104.671875 200.5 104.671875 200.5 104.675781 200.5 C 105.097656 200.5 105.894531 200.3125 106.46875 199.066406 C 107.035156 197.839844 107.332031 196.851562 108.589844 192.347656 C 109.003906 190.863281 109.441406 189.050781 109.945312 186.949219 C 111.464844 180.660156 113.539062 172.042969 116.703125 165.917969 C 118.304688 162.808594 126.542969 159.953125 127.855469 159.882812 C 128.535156 164.59375 129.222656 168.867188 129.804688 172.496094 C 129.988281 173.628906 130.160156 174.695312 130.320312 175.691406 C 130.34375 175.835938 130.464844 175.941406 130.609375 175.941406 L 132.964844 175.941406 L 132.964844 180.242188 C 132.964844 180.40625 133.09375 180.535156 133.257812 180.535156 L 140.058594 180.535156 L 137.257812 191.800781 L 135.855469 191.800781 C 135.246094 191.800781 134.75 192.292969 134.75 192.902344 L 134.75 194.761719 C 134.75 195.367188 135.246094 195.863281 135.855469 195.863281 L 137.664062 195.863281 L 133.996094 209.066406 C 133.554688 208.972656 133.101562 208.921875 132.632812 208.921875 C 131.761719 208.921875 130.921875 209.09375 130.121094 209.433594 C 129.359375 204.839844 125.355469 201.421875 120.652344 201.421875 C 115.355469 201.421875 111.046875 205.726562 111.046875 211.011719 C 111.046875 211.027344 111.046875 211.042969 111.046875 211.054688 C 108.484375 211.308594 106.40625 213.15625 105.859375 215.667969 L 103.351562 215.667969 C 103.339844 215.667969 103.328125 215.671875 103.3125 215.675781 C 103.292969 215.679688 103.269531 215.679688 103.25 215.6875 C 103.234375 215.695312 103.21875 215.703125 103.203125 215.714844 C 103.1875 215.722656 103.167969 215.734375 103.15625 215.746094 C 103.140625 215.761719 103.128906 215.777344 103.117188 215.796875 C 103.109375 215.808594 103.097656 215.816406 103.089844 215.828125 L 86.566406 248.363281 C 86.492188 248.507812 86.550781 248.6875 86.695312 248.757812 C 86.738281 248.78125 86.785156 248.789062 86.828125 248.789062 C 86.9375 248.789062 87.039062 248.730469 87.09375 248.628906 L 103.058594 217.1875 L 103.058594 259.542969 C 103.058594 259.703125 103.191406 259.835938 103.351562 259.835938 L 195.433594 259.835938 C 195.59375 259.835938 195.726562 259.703125 195.726562 259.542969 L 195.726562 217.226562 L 211.675781 248.628906 C 211.726562 248.730469 211.832031 248.789062 211.9375 248.789062 C 211.980469 248.789062 212.027344 248.78125 212.070312 248.757812 C 212.214844 248.6875 212.273438 248.507812 212.199219 248.363281 Z M 167.332031 209.507812 C 168.242188 209.507812 169.121094 209.714844 169.945312 210.125 C 170.03125 210.167969 170.128906 210.167969 170.214844 210.121094 C 170.300781 210.078125 170.359375 209.996094 170.367188 209.898438 C 170.925781 205.402344 174.769531 202.011719 179.3125 202.011719 C 184.285156 202.011719 188.332031 206.050781 188.332031 211.011719 C 188.332031 211.023438 188.328125 211.03125 188.328125 211.039062 C 187.472656 211.085938 184.914062 211.425781 183.464844 213.859375 C 183.378906 214 183.425781 214.179688 183.566406 214.265625 C 183.613281 214.292969 183.664062 214.304688 183.714844 214.304688 C 183.816406 214.304688 183.914062 214.253906 183.96875 214.160156 C 185.507812 211.578125 188.546875 211.621094 188.601562 211.621094 C 190.941406 211.742188 192.953125 213.417969 193.503906 215.667969 L 161.476562 215.667969 C 161.472656 215.566406 161.46875 215.464844 161.46875 215.359375 C 161.46875 212.132812 164.097656 209.507812 167.332031 209.507812 Z M 164.503906 192.386719 C 164.789062 192.386719 165.019531 192.617188 165.019531 192.902344 L 165.019531 194.761719 C 165.019531 195.042969 164.789062 195.277344 164.503906 195.277344 L 152.800781 195.277344 L 152.800781 192.386719 Z M 162.492188 191.800781 L 152.800781 191.800781 L 152.800781 180.535156 L 159.695312 180.535156 Z M 192.746094 149.570312 C 195.039062 157.621094 197.101562 187.921875 197.253906 194.226562 C 197.269531 194.808594 197.296875 195.339844 197.324219 195.824219 C 197.394531 197.128906 197.445312 198.070312 197.144531 198.707031 C 196.800781 199.441406 196.230469 199.914062 195.6875 199.914062 C 195.199219 199.914062 194.75 199.523438 194.425781 198.820312 C 193.875 197.632812 193.582031 196.65625 192.335938 192.191406 C 191.925781 190.714844 191.488281 188.90625 190.984375 186.808594 C 189.460938 180.492188 187.375 171.835938 184.179688 165.648438 C 182.453125 162.300781 174.828125 159.429688 172.601562 159.296875 C 173.832031 150.648438 175.023438 140.390625 175.484375 129.8125 C 177.789062 131.675781 190.6875 142.332031 192.746094 149.570312 Z M 150.179688 52.523438 C 154.363281 52.585938 162.082031 62.707031 167.863281 78.25 L 132.496094 78.25 C 138.273438 62.707031 145.996094 52.585938 150.179688 52.523438 Z M 116.179688 165.648438 C 112.984375 171.839844 110.898438 180.492188 109.375 186.808594 C 108.871094 188.90625 108.433594 190.71875 108.019531 192.191406 C 106.773438 196.65625 106.484375 197.636719 105.933594 198.820312 C 105.609375 199.523438 105.160156 199.914062 104.671875 199.914062 C 104.128906 199.914062 103.558594 199.441406 103.214844 198.707031 C 102.914062 198.070312 102.964844 197.128906 103.035156 195.824219 C 103.0625 195.339844 103.089844 194.808594 103.105469 194.226562 C 103.257812 187.917969 105.320312 157.617188 107.609375 149.570312 C 109.664062 142.351562 122.496094 131.734375 124.859375 129.828125 C 125.320312 140.347656 126.523438 150.5625 127.769531 159.300781 C 126.136719 159.476562 117.878906 162.355469 116.179688 165.648438 Z M 130.859375 175.351562 C 130.714844 174.425781 130.554688 173.441406 130.386719 172.402344 C 127.527344 154.671875 122.207031 121.667969 127.480469 95.839844 C 128.734375 89.703125 130.398438 83.984375 132.28125 78.835938 L 168.078125 78.835938 C 169.957031 83.984375 171.621094 89.703125 172.875 95.839844 C 178.226562 122.03125 172.570312 156.574219 169.855469 173.175781 L 169.5 175.351562 L 152.800781 175.351562 L 152.800781 130.871094 C 152.800781 129.511719 151.691406 128.402344 150.328125 128.402344 L 150.027344 128.402344 C 148.664062 128.402344 147.558594 129.511719 147.558594 130.871094 L 147.558594 175.351562 Z M 152.214844 130.871094 L 152.214844 198.042969 C 152.214844 199.082031 151.367188 199.921875 150.328125 199.921875 L 150.027344 199.921875 C 148.992188 199.921875 148.144531 199.082031 148.144531 198.042969 L 148.144531 130.871094 C 148.144531 129.835938 148.992188 128.992188 150.027344 128.992188 L 150.328125 128.992188 C 151.367188 128.992188 152.214844 129.835938 152.214844 130.871094 Z M 140.664062 180.535156 L 147.558594 180.535156 L 147.558594 191.800781 L 137.863281 191.800781 Z M 135.855469 195.277344 C 135.570312 195.277344 135.339844 195.042969 135.339844 194.761719 L 135.339844 192.902344 C 135.339844 192.617188 135.570312 192.386719 135.855469 192.386719 L 147.558594 192.386719 L 147.558594 195.277344 Z M 138.273438 195.863281 L 147.558594 195.863281 L 147.558594 198.042969 C 147.558594 199.402344 148.664062 200.511719 150.027344 200.511719 L 150.328125 200.511719 C 151.691406 200.511719 152.800781 199.402344 152.800781 198.042969 L 152.800781 195.863281 L 161.6875 195.863281 C 162.304688 198.082031 165.058594 207.992188 165.398438 209.214844 C 162.78125 210.039062 160.878906 212.480469 160.878906 215.359375 C 160.878906 215.464844 160.890625 215.566406 160.894531 215.667969 L 158.082031 215.667969 C 157.65625 213.875 156.070312 212.59375 154.199219 212.59375 C 153.304688 212.59375 152.449219 212.886719 151.75 213.429688 C 151.085938 211.492188 149.273438 210.175781 147.1875 210.175781 C 144.523438 210.175781 142.359375 212.335938 142.359375 214.996094 C 142.359375 215.21875 142.378906 215.441406 142.414062 215.667969 L 139.070312 215.667969 C 139.074219 215.566406 139.085938 215.464844 139.085938 215.359375 C 139.085938 212.480469 137.179688 210.039062 134.566406 209.214844 Z M 157.492188 215.667969 L 143 215.667969 C 142.964844 215.441406 142.945312 215.21875 142.945312 214.996094 C 142.945312 212.660156 144.847656 210.761719 147.1875 210.761719 C 149.160156 210.761719 150.855469 212.101562 151.308594 214.019531 C 151.332031 214.121094 151.410156 214.203125 151.511719 214.234375 C 151.617188 214.261719 151.726562 214.234375 151.800781 214.160156 C 152.445312 213.527344 153.296875 213.179688 154.199219 213.179688 C 155.75 213.179688 157.082031 214.207031 157.492188 215.667969 Z M 111.363281 211.621094 C 112.265625 211.621094 114.460938 211.855469 115.453125 213.984375 C 115.503906 214.09375 115.609375 214.15625 115.71875 214.15625 C 115.761719 214.15625 115.804688 214.148438 115.84375 214.128906 C 115.992188 214.058594 116.054688 213.886719 115.988281 213.738281 C 114.941406 211.496094 112.769531 211.09375 111.632812 211.039062 C 111.632812 211.03125 111.632812 211.023438 111.632812 211.011719 C 111.632812 206.050781 115.679688 202.011719 120.652344 202.011719 C 125.121094 202.011719 128.910156 205.296875 129.558594 209.691406 C 128.886719 210.015625 126.871094 211.199219 126.253906 213.96875 C 126.21875 214.125 126.320312 214.28125 126.476562 214.316406 C 126.5 214.320312 126.519531 214.324219 126.542969 214.324219 C 126.675781 214.324219 126.796875 214.230469 126.828125 214.09375 C 127.484375 211.144531 129.96875 210.148438 129.992188 210.136719 C 129.996094 210.136719 130 210.132812 130.003906 210.128906 C 130.011719 210.128906 130.015625 210.128906 130.019531 210.125 C 130.84375 209.714844 131.722656 209.507812 132.632812 209.507812 C 135.867188 209.507812 138.496094 212.132812 138.496094 215.359375 C 138.496094 215.464844 138.492188 215.566406 138.488281 215.667969 L 106.457031 215.667969 C 107.011719 213.417969 109.019531 211.742188 111.363281 211.621094 Z M 195.136719 259.25 L 103.648438 259.25 L 103.648438 216.253906 L 195.136719 216.253906 Z M 136.507812 75.320312 C 136 75.320312 135.582031 75.734375 135.582031 76.246094 C 135.582031 76.757812 136 77.171875 136.507812 77.171875 C 137.019531 77.171875 137.4375 76.757812 137.4375 76.246094 C 137.4375 75.734375 137.019531 75.320312 136.507812 75.320312 Z M 136.507812 76.585938 C 136.324219 76.585938 136.171875 76.433594 136.171875 76.246094 C 136.171875 76.058594 136.324219 75.90625 136.507812 75.90625 C 136.695312 75.90625 136.847656 76.058594 136.847656 76.246094 C 136.847656 76.433594 136.695312 76.585938 136.507812 76.585938 Z M 248.929688 129.035156 C 248.804688 128.863281 248.605469 128.78125 248.394531 128.800781 C 247.726562 128.875 246.40625 129.074219 245.089844 129.550781 C 244.96875 129.59375 244.890625 129.710938 244.898438 129.839844 C 244.925781 130.441406 245.636719 131.242188 246.550781 131.402344 C 246.648438 131.421875 246.757812 131.433594 246.878906 131.433594 C 247.492188 131.433594 248.367188 131.121094 249.003906 129.621094 C 249.085938 129.421875 249.058594 129.203125 248.929688 129.035156 Z M 248.460938 129.390625 C 248.007812 130.460938 247.382812 130.957031 246.652344 130.824219 C 246.128906 130.730469 245.695312 130.332031 245.542969 130.015625 C 246.714844 129.621094 247.859375 129.453125 248.460938 129.386719 Z M 141.96875 75.320312 C 141.457031 75.320312 141.042969 75.734375 141.042969 76.246094 C 141.042969 76.757812 141.457031 77.171875 141.96875 77.171875 C 142.480469 77.171875 142.894531 76.757812 142.894531 76.246094 C 142.894531 75.734375 142.480469 75.320312 141.96875 75.320312 Z M 141.96875 76.585938 C 141.78125 76.585938 141.628906 76.433594 141.628906 76.246094 C 141.628906 76.058594 141.78125 75.90625 141.96875 75.90625 C 142.15625 75.90625 142.308594 76.058594 142.308594 76.246094 C 142.308594 76.433594 142.15625 76.585938 141.96875 76.585938 Z M 147.425781 75.320312 C 146.914062 75.320312 146.5 75.734375 146.5 76.246094 C 146.5 76.757812 146.914062 77.171875 147.425781 77.171875 C 147.9375 77.171875 148.355469 76.757812 148.355469 76.246094 C 148.355469 75.734375 147.9375 75.320312 147.425781 75.320312 Z M 147.425781 76.585938 C 147.242188 76.585938 147.089844 76.433594 147.089844 76.246094 C 147.089844 76.058594 147.242188 75.90625 147.425781 75.90625 C 147.613281 75.90625 147.765625 76.058594 147.765625 76.246094 C 147.765625 76.433594 147.613281 76.585938 147.425781 76.585938 Z M 158.34375 75.320312 C 157.832031 75.320312 157.417969 75.734375 157.417969 76.246094 C 157.417969 76.757812 157.832031 77.171875 158.34375 77.171875 C 158.855469 77.171875 159.273438 76.757812 159.273438 76.246094 C 159.273438 75.734375 158.855469 75.320312 158.34375 75.320312 Z M 158.34375 76.585938 C 158.160156 76.585938 158.007812 76.433594 158.007812 76.246094 C 158.007812 76.058594 158.160156 75.90625 158.34375 75.90625 C 158.53125 75.90625 158.683594 76.058594 158.683594 76.246094 C 158.683594 76.433594 158.53125 76.585938 158.34375 76.585938 Z M 160.285156 116.300781 C 163.03125 113.558594 164.542969 109.914062 164.542969 106.035156 C 164.542969 102.15625 163.03125 98.511719 160.285156 95.769531 C 157.535156 93.027344 153.886719 91.515625 150 91.515625 C 146.117188 91.515625 142.464844 93.027344 139.714844 95.769531 C 136.96875 98.511719 135.457031 102.15625 135.457031 106.035156 C 135.457031 109.914062 136.96875 113.558594 139.714844 116.300781 C 142.464844 119.042969 146.117188 120.550781 150 120.550781 C 153.886719 120.550781 157.535156 119.042969 160.285156 116.300781 Z M 136.042969 106.035156 C 136.042969 102.3125 137.496094 98.816406 140.132812 96.183594 C 142.769531 93.554688 146.273438 92.105469 150 92.105469 C 153.726562 92.105469 157.230469 93.554688 159.867188 96.183594 C 162.503906 98.816406 163.953125 102.3125 163.953125 106.035156 C 163.953125 109.753906 162.503906 113.253906 159.867188 115.882812 C 157.230469 118.515625 153.726562 119.964844 150 119.964844 C 146.273438 119.964844 142.769531 118.515625 140.132812 115.882812 C 137.496094 113.253906 136.042969 109.753906 136.042969 106.035156 Z M 152.886719 75.320312 C 152.375 75.320312 151.960938 75.734375 151.960938 76.246094 C 151.960938 76.757812 152.375 77.171875 152.886719 77.171875 C 153.398438 77.171875 153.8125 76.757812 153.8125 76.246094 C 153.8125 75.734375 153.398438 75.320312 152.886719 75.320312 Z M 152.886719 76.585938 C 152.699219 76.585938 152.546875 76.433594 152.546875 76.246094 C 152.546875 76.058594 152.699219 75.90625 152.886719 75.90625 C 153.074219 75.90625 153.226562 76.058594 153.226562 76.246094 C 153.226562 76.433594 153.074219 76.585938 152.886719 76.585938 Z M 48.003906 136.070312 C 47.800781 136.046875 47.59375 136.132812 47.46875 136.300781 C 47.339844 136.472656 47.3125 136.691406 47.398438 136.886719 C 48.03125 138.390625 48.90625 138.699219 49.519531 138.699219 C 49.640625 138.699219 49.753906 138.6875 49.847656 138.671875 C 50.761719 138.507812 51.472656 137.710938 51.5 137.105469 C 51.507812 136.976562 51.429688 136.859375 51.308594 136.816406 C 49.992188 136.339844 48.671875 136.144531 48.003906 136.070312 Z M 49.746094 138.09375 C 49.011719 138.222656 48.390625 137.726562 47.9375 136.652344 L 47.96875 136.359375 L 47.9375 136.652344 C 48.539062 136.71875 49.683594 136.886719 50.855469 137.28125 C 50.703125 137.597656 50.269531 138 49.746094 138.09375 Z M 49.746094 138.09375 " fill-opacity="1" fill-rule="nonzero"/></g></svg>