<svg xmlns="http://www.w3.org/2000/svg" enable-background="new 0 0 512 512" viewBox="0 0 512 512" id="banner"><path fill="#212120" d="M467.252,51.25H44.748C20.074,51.25,0,71.324,0,95.998v258.504
		c0,24.674,20.074,44.748,44.748,44.748H205v41.5h-20.75c-5.523,0-10,4.478-10,10s4.477,10,10,10H215h82h30.75
		c5.522,0,10-4.478,10-10s-4.478-10-10-10H307v-41.5h160.252c24.674,0,44.748-20.074,44.748-44.748V95.998
		C512,71.324,491.926,51.25,467.252,51.25z M44.748,71.25h422.504C480.898,71.25,492,82.352,492,95.998V317.75H20V95.998
		C20,82.352,31.102,71.25,44.748,71.25z M287,440.75h-62v-41.5h62V440.75z M467.252,379.25H44.748
		C31.102,379.25,20,368.148,20,354.502V337.75h472v16.752C492,368.148,480.898,379.25,467.252,379.25z"></path><path fill="#212120" d="M51 112.25h410c5.522 0 10-4.477 10-10s-4.478-10-10-10H51c-5.523 0-10 4.477-10 10S45.477 112.25 51 112.25zM51 153.25h205c5.522 0 10-4.477 10-10s-4.478-10-10-10H51c-5.523 0-10 4.477-10 10S45.477 153.25 51 153.25zM51 194.25h205c5.522 0 10-4.477 10-10s-4.478-10-10-10H51c-5.523 0-10 4.477-10 10S45.477 194.25 51 194.25zM51 235.25h205c5.522 0 10-4.477 10-10s-4.478-10-10-10H51c-5.523 0-10 4.477-10 10S45.477 235.25 51 235.25zM51 276.25h205c5.522 0 10-4.478 10-10 0-5.523-4.478-10-10-10H51c-5.523 0-10 4.477-10 10C41 271.772 45.477 276.25 51 276.25zM461 133.25H297c-5.522 0-10 4.477-10 10v123c0 5.522 4.478 10 10 10h164c5.522 0 10-4.478 10-10v-123C471 137.727 466.522 133.25 461 133.25zM451 256.25H307v-103h144V256.25z"></path></svg>