<svg xmlns="http://www.w3.org/2000/svg" viewBox="0 0 50 50" id="verbal-branding"><path d="M1 39h27.586L38 48.414V39h11V1H1v38zM3 3h44v34H36v6.586L29.414 37H3V3z"></path><path d="M15.818 24 33 30.443V5.557L15.818 12H7v12h6v6h2v-6h.818zM31 27.557l-14-5.25v-8.613l14-5.25v19.113zM9 14h6v8H9v-8zM36.207 22.742c1.134-1.134 1.759-2.641 1.759-4.242s-.625-3.108-1.759-4.242l-1.414 1.414a4.003 4.003 0 0 1 0 5.656l1.414 1.414zM40.207 26.207c4.25-4.25 4.25-11.164 0-15.414l-1.414 1.414c3.47 3.47 3.47 9.116 0 12.586l1.414 1.414z"></path></svg>