<svg xmlns="http://www.w3.org/2000/svg" viewBox="0 0 64 64" id="postcard"><path d="M27 20a1 1 0 0 0-1 1V51a1 1 0 0 0 2 0V21A1 1 0 0 0 27 20zM46.5 19h-11A1.5 1.5 0 0 0 34 20.5v7A1.5 1.5 0 0 0 35.5 29h11A1.5 1.5 0 0 0 48 27.5v-7A1.5 1.5 0 0 0 46.5 19zM46 27H36V21H46zM31 34h6a1 1 0 0 0 0-2H31a1 1 0 0 0 0 2zM47 36H31a1 1 0 0 0 0 2H47a1 1 0 0 0 0-2zM47 40H31a1 1 0 0 0 0 2H47a1 1 0 0 0 0-2zM47 44H31a1 1 0 0 0 0 2H47a1 1 0 0 0 0-2zM47 48H41a1 1 0 0 0 0 2h6a1 1 0 0 0 0-2zM7 26h8a1 1 0 0 0 0-2H7a1 1 0 0 0 0 2zM23 28H7a1 1 0 0 0 0 2H23a1 1 0 0 0 0-2zM23 32H7a1 1 0 0 0 0 2H23a1 1 0 0 0 0-2zM23 36H7a1 1 0 0 0 0 2H23a1 1 0 0 0 0-2zM23 40H7a1 1 0 0 0 0 2H23a1 1 0 0 0 0-2zM23 48H15a1 1 0 0 0 0 2h8a1 1 0 0 0 0-2zM23 44H7a1 1 0 0 0 0 2H23a1 1 0 0 0 0-2z"></path><path d="M60,6H14a2,2,0,0,0-2,2v7H4a2,2,0,0,0-2,2V55a2,2,0,0,0,2,2H50a2,2,0,0,0,2-2V48h8a2,2,0,0,0,2-2V8A2,2,0,0,0,60,6ZM4,55V17H50V47h0v8Zm56-9H52V17a2,2,0,0,0-2-2H14V8H60Z"></path></svg>